<svg width="40" height="40" viewBox="0 0 40 40" fill="none" xmlns="http://www.w3.org/2000/svg">
<circle cx="19" cy="20" r="18" fill="#FFEBEC"/>
<path d="M30.9877 35.8939H16.2449C15.9542 35.8939 15.7183 36.1298 15.7183 36.4204V37.4735C15.7183 37.7641 15.9542 38 16.2449 38C16.5355 38 16.7714 37.7641 16.7714 37.4735V36.947H30.9877C31.2783 36.947 31.5142 36.7111 31.5142 36.4205C31.5142 36.1299 31.2784 35.8939 30.9877 35.8939Z" fill="#4C2A2A"/>
<path d="M19.9306 19.5715C19.9306 19.8621 20.1664 20.098 20.4571 20.098H22.5632C22.8538 20.098 23.0897 19.8621 23.0897 19.5715V16.4123C23.0897 16.1216 22.8538 15.8858 22.5632 15.8858H20.4571C20.1665 15.8858 19.9306 16.1216 19.9306 16.4123L19.9306 19.5715ZM20.9836 16.9388H22.0367V19.0449H20.9836V16.9388Z" fill="#4C2A2A"/>
<path d="M15.1918 12.7266H8.87343C8.58281 12.7266 8.34692 12.9625 8.34692 13.2531V23.7837C8.34692 24.0743 8.58281 24.3102 8.87343 24.3102C9.16405 24.3102 9.39994 24.0743 9.39994 23.7837V13.7797H15.1918C15.4824 13.7797 15.7183 13.5438 15.7183 13.2531C15.7183 12.9625 15.4825 12.7266 15.1918 12.7266Z" fill="#4C2A2A"/>
<path d="M33.6204 32.2082C33.6204 32.4988 33.8563 32.7347 34.1469 32.7347H36.253C36.5436 32.7347 36.7795 32.4988 36.7795 32.2082V29.049C36.7795 28.7584 36.5436 28.5225 36.253 28.5225H34.1469C33.8563 28.5225 33.6204 28.7584 33.6204 29.049V32.2082ZM34.6735 29.5756H35.7266V31.6817H34.6735V29.5756Z" fill="#4C2A2A"/>
<path d="M10.9796 25.3633C8.37691 25.3633 8.34692 32.1398 8.34692 32.2082C8.34692 33.4798 9.25309 34.5428 10.453 34.7877V37.4735C10.453 37.7642 10.6889 38 10.9795 38C11.2702 38 11.506 37.7642 11.506 37.4735V34.7877C12.706 34.5428 13.6121 33.4798 13.6121 32.2082C13.6122 32.1398 13.5822 25.3633 10.9796 25.3633ZM10.9796 33.7878C10.1087 33.7878 9.40001 33.0791 9.40001 32.2082C9.40001 29.585 10.1045 26.4163 10.9796 26.4163C11.8547 26.4163 12.5592 29.585 12.5592 32.2082C12.5592 33.0791 11.8505 33.7878 10.9796 33.7878Z" fill="#4C2A2A"/>
<path d="M14.1388 22.2041H12.0326C11.742 22.2041 11.5061 22.44 11.5061 22.7306V23.7837C11.5061 24.0743 11.742 24.3102 12.0326 24.3102C12.3232 24.3102 12.5591 24.0743 12.5591 23.7837V23.2572H13.6122V25.8899C13.6122 26.1805 13.8481 26.4164 14.1387 26.4164C14.4293 26.4164 14.6652 26.1805 14.6652 25.8899V22.7307C14.6653 22.44 14.4294 22.2041 14.1388 22.2041Z" fill="#4C2A2A"/>
<path d="M34.1469 20.098H36.253C36.5436 20.098 36.7795 19.8621 36.7795 19.5715V16.4123C36.7795 16.1217 36.5436 15.8858 36.253 15.8858H34.1469C33.8563 15.8858 33.6204 16.1217 33.6204 16.4123V19.5715C33.6204 19.8621 33.8563 20.098 34.1469 20.098ZM34.6735 16.9388H35.7266V19.0449H34.6735V16.9388Z" fill="#4C2A2A"/>
<path d="M14.1388 15.8858H12.0326C11.742 15.8858 11.5061 16.1216 11.5061 16.4123V19.5715C11.5061 19.8621 11.742 20.098 12.0326 20.098H14.1387C14.4293 20.098 14.6652 19.8621 14.6652 19.5715V16.4123C14.6653 16.1216 14.4294 15.8858 14.1388 15.8858ZM13.6122 19.0449H12.5592V16.9388H13.6123L13.6122 19.0449Z" fill="#4C2A2A"/>
<path d="M25.1959 19.5715C25.1959 19.8621 25.4318 20.098 25.7224 20.098H27.8285C28.1191 20.098 28.355 19.8621 28.355 19.5715V16.4123C28.355 16.1216 28.1191 15.8858 27.8285 15.8858H25.7224C25.4318 15.8858 25.1959 16.1216 25.1959 16.4123V19.5715ZM26.2489 16.9388H27.302V19.0449H26.2489V16.9388Z" fill="#4C2A2A"/>
<path d="M39.4123 12.7266H33.0939C32.8033 12.7266 32.5674 12.9625 32.5674 13.2531C32.5674 13.5437 32.8033 13.7796 33.0939 13.7796H38.8858V34.9377C38.7205 34.8788 38.5451 34.8409 38.3593 34.8409C38.2682 34.8409 38.1776 34.8488 38.0886 34.8646C37.7253 34.2101 37.034 33.7878 36.2532 33.7878C35.4723 33.7878 34.781 34.2101 34.4177 34.8646C34.3287 34.8488 34.2381 34.8409 34.1471 34.8409C33.2762 34.8409 32.5675 35.5496 32.5675 36.4205C32.5675 37.2913 33.2762 38 34.1471 38H38.3592C39.2301 38 39.9388 37.2913 39.9388 36.4205V13.2531C39.9388 12.9625 39.7029 12.7266 39.4123 12.7266ZM38.3592 36.947H34.1469C33.8568 36.947 33.6204 36.7106 33.6204 36.4205C33.6204 36.1303 33.8568 35.8939 34.1469 35.8939C34.248 35.8939 34.3438 35.9229 34.4323 35.9798C34.5766 36.0725 34.7567 36.0893 34.9157 36.0251C35.0747 35.9608 35.1921 35.8229 35.2306 35.656C35.3417 35.1763 35.7624 34.8409 36.2531 34.8409C36.7438 34.8409 37.1645 35.1763 37.2756 35.656C37.3141 35.8229 37.4315 35.9608 37.5905 36.0251C37.749 36.0893 37.9296 36.0725 38.0739 35.9798C38.4166 35.7586 38.8858 36.0293 38.8858 36.4205C38.8857 36.7106 38.6493 36.947 38.3592 36.947Z" fill="#4C2A2A"/>
<path d="M25.7224 13.7797H27.8285C28.1191 13.7797 28.355 13.5438 28.355 13.2531V10.094C28.355 9.80334 28.1191 9.56745 27.8285 9.56745H25.7224C25.4318 9.56745 25.1959 9.80334 25.1959 10.094V13.2531C25.1959 13.5438 25.4318 13.7797 25.7224 13.7797ZM26.2489 10.6205H27.302V12.7266H26.2489V10.6205Z" fill="#4C2A2A"/>
<path d="M25.1959 25.8898C25.1959 26.1804 25.4318 26.4163 25.7224 26.4163H27.8285C28.1191 26.4163 28.355 26.1804 28.355 25.8898V22.7306C28.355 22.44 28.1191 22.2041 27.8285 22.2041H25.7224C25.4318 22.2041 25.1959 22.44 25.1959 22.7306V25.8898ZM26.2489 23.2572H27.302V25.3633H26.2489V23.2572Z" fill="#4C2A2A"/>
<path d="M20.4571 13.7797H22.5632C22.8539 13.7797 23.0898 13.5438 23.0898 13.2531V10.094C23.0898 9.80334 22.8539 9.56745 22.5632 9.56745H20.4571C20.1665 9.56745 19.9306 9.80334 19.9306 10.094V13.2531C19.9306 13.5438 20.1665 13.7797 20.4571 13.7797ZM20.9836 10.6205H22.0367V12.7266H20.9836V10.6205Z" fill="#4C2A2A"/>
<path d="M23.7689 31.8344C23.6742 31.9344 23.6162 32.0713 23.6162 32.2082C23.6162 32.3451 23.6742 32.482 23.7689 32.5821C23.869 32.6769 24.0059 32.7348 24.1428 32.7348C24.2797 32.7348 24.4166 32.6769 24.5167 32.5821C24.6114 32.4821 24.6694 32.3451 24.6694 32.2082C24.6694 32.0713 24.6114 31.9344 24.5167 31.8344C24.3166 31.6395 23.969 31.6395 23.7689 31.8344Z" fill="#4C2A2A"/>
<path d="M19.9306 25.8898C19.9306 26.1804 20.1664 26.4163 20.4571 26.4163H22.5632C22.8538 26.4163 23.0897 26.1804 23.0897 25.8898V22.7306C23.0897 22.44 22.8538 22.2041 22.5632 22.2041H20.4571C20.1665 22.2041 19.9306 22.44 19.9306 22.7306L19.9306 25.8898ZM20.9836 23.2572H22.0367V25.3633H20.9836V23.2572Z" fill="#4C2A2A"/>
<path d="M18.8776 29.049C18.8776 29.3396 19.1135 29.5755 19.4041 29.5755H20.9837V34.3143C20.9837 34.6049 21.2196 34.8408 21.5102 34.8408C21.8008 34.8408 22.0367 34.6049 22.0367 34.3143V29.5755H26.249V34.3143C26.249 34.6049 26.4848 34.8408 26.7755 34.8408C27.0661 34.8408 27.302 34.6049 27.302 34.3143V29.5755H28.8816C29.1722 29.5755 29.4081 29.3396 29.4081 29.049C29.4081 28.7584 29.1722 28.5225 28.8816 28.5225H19.4041C19.1135 28.5225 18.8776 28.7584 18.8776 29.049Z" fill="#4C2A2A"/>
<path d="M33.6204 25.8898C33.6204 26.1804 33.8563 26.4163 34.1469 26.4163H36.253C36.5436 26.4163 36.7795 26.1804 36.7795 25.8898V22.7306C36.7795 22.44 36.5436 22.2041 36.253 22.2041H34.1469C33.8563 22.2041 33.6204 22.44 33.6204 22.7306V25.8898ZM34.6735 23.2572H35.7266V25.3633H34.6735V23.2572Z" fill="#4C2A2A"/>
<path d="M30.9878 6.4082H17.298C17.0074 6.4082 16.7715 6.64409 16.7715 6.93471V34.3143C16.7715 34.6049 17.0074 34.8408 17.298 34.8408C17.5886 34.8408 17.8245 34.6049 17.8245 34.3143V7.46122H30.4612V34.3143C30.4612 34.6049 30.6971 34.8408 30.9878 34.8408C31.2784 34.8408 31.5143 34.6049 31.5143 34.3143V6.93471C31.5143 6.64409 31.2784 6.4082 30.9878 6.4082Z" fill="#4C2A2A"/>
</svg>
