<svg width="20" height="20" viewBox="0 0 20 20" fill="none" xmlns="http://www.w3.org/2000/svg">
<path d="M17.0665 17.0665C13.1673 20.9656 6.8235 20.9656 2.92436 17.0665C-0.974786 13.1673 -0.974786 6.8235 2.92436 2.92436C6.8235 -0.974786 13.1673 -0.974786 17.0665 2.92436C20.9656 6.8235 20.9656 13.1673 17.0665 17.0665ZM3.80824 3.80824C0.396464 7.22002 0.396464 12.7708 3.80824 16.1826C7.22002 19.5944 12.7708 19.5944 16.1826 16.1826C19.5944 12.7708 19.5944 7.22002 16.1826 3.80824C12.7708 0.396464 7.22002 0.396464 3.80824 3.80824Z" fill="#333333"/>
<path d="M13.531 7.34377L7.34377 13.531C7.09982 13.7749 6.70384 13.7749 6.45989 13.531C6.21594 13.287 6.21594 12.891 6.45989 12.6471L12.6471 6.45989C12.891 6.21594 13.287 6.21594 13.531 6.45989C13.7749 6.70384 13.7749 7.09982 13.531 7.34377Z" fill="#333333"/>
<path d="M13.531 13.531C13.287 13.7749 12.891 13.7749 12.6471 13.531L6.45989 7.34377C6.21594 7.09982 6.21594 6.70384 6.45989 6.45989C6.70384 6.21594 7.09982 6.21594 7.34377 6.45989L13.531 12.6471C13.7749 12.891 13.7749 13.287 13.531 13.531Z" fill="#333333"/>
</svg>
