<svg width="40" height="40" viewBox="0 0 40 40" fill="none" xmlns="http://www.w3.org/2000/svg">
<circle cx="19" cy="20" r="18" fill="#FFEBEC"/>
<path d="M30.9877 24.8368H37.306C37.5972 24.8368 37.8325 24.6009 37.8325 24.3103V22.2041C37.8325 21.9135 37.5972 21.6776 37.306 21.6776C37.0149 21.6776 36.7795 21.9135 36.7795 22.2041V23.7837H30.9877C30.6965 23.7837 30.4612 24.0196 30.4612 24.3102C30.4612 24.6008 30.6965 24.8368 30.9877 24.8368Z" fill="#4C2A2A"/>
<path d="M36.7796 15.8857V13.7796C36.7796 13.489 36.5443 13.2531 36.2531 13.2531C35.9619 13.2531 35.7266 13.489 35.7266 13.7796V15.3592H24.6695C24.3788 15.3592 24.143 15.5951 24.143 15.8857C24.143 16.1764 24.3788 16.4122 24.6695 16.4122H36.2531C36.5443 16.4122 36.7796 16.1764 36.7796 15.8857Z" fill="#4C2A2A"/>
<path d="M16.2448 15.3592C16.5355 15.3592 16.7714 15.1233 16.7714 14.8327V7.98777H35.7265V11.147H18.3509C18.0603 11.147 17.8244 11.3828 17.8244 11.6735C17.8244 11.9641 18.0603 12.2 18.3509 12.2H36.253C36.5441 12.2 36.7795 11.9641 36.7795 11.6735V7.46126C36.7795 7.17064 36.5441 6.93475 36.253 6.93475H16.2448C15.9542 6.93475 15.7183 7.17064 15.7183 7.46126V14.8327C15.7183 15.1233 15.9542 15.3592 16.2448 15.3592Z" fill="#4C2A2A"/>
<path d="M36.7796 19.5714H28.8816C28.5905 19.5714 28.3551 19.8073 28.3551 20.0979C28.3551 20.3886 28.5905 20.6245 28.8816 20.6245H37.3061C37.5973 20.6245 37.8326 20.3886 37.8326 20.0979V17.9918C37.8326 17.7012 37.5973 17.4653 37.3061 17.4653C37.0149 17.4653 36.7796 17.7012 36.7796 17.9918V19.5714Z" fill="#4C2A2A"/>
<path d="M37.8326 27.996H30.9877C30.6965 27.996 30.4612 28.2318 30.4612 28.5225C30.4612 28.8131 30.6965 29.049 30.9877 29.049H38.3591C38.6503 29.049 38.8856 28.8131 38.8856 28.5225V26.4164C38.8856 26.1257 38.6503 25.8899 38.3591 25.8899C38.0679 25.8899 37.8326 26.1257 37.8326 26.4164V27.996Z" fill="#4C2A2A"/>
<path d="M29.4081 26.9429C29.4081 21.1363 24.6841 16.4122 18.8775 16.4122C13.0709 16.4122 8.34692 21.1363 8.34692 26.9429C8.34692 32.7495 13.071 37.4735 18.8776 37.4735C24.6842 37.4735 29.4081 32.7495 29.4081 26.9429ZM18.8776 36.4204C13.6518 36.4204 9.40001 32.1687 9.40001 26.9429C9.40001 21.7171 13.6518 17.4653 18.8776 17.4653C24.1033 17.4653 28.3551 21.7171 28.3551 26.9429C28.3551 32.1687 24.1033 36.4204 18.8776 36.4204Z" fill="#4C2A2A"/>
<path d="M18.8777 24.3102C19.4584 24.3102 19.9307 24.7825 19.9307 25.3633C19.9307 25.6539 20.1666 25.8898 20.4572 25.8898C20.7479 25.8898 20.9838 25.6539 20.9838 25.3633C20.9838 24.385 20.3098 23.5673 19.4042 23.3319V23.2571C19.4042 22.9665 19.1683 22.7306 18.8777 22.7306C18.587 22.7306 18.3511 22.9665 18.3511 23.2571V23.3319C17.4455 23.5672 16.7716 24.385 16.7716 25.3633C16.7716 26.5248 17.7162 27.4694 18.8777 27.4694C19.4584 27.4694 19.9307 27.9417 19.9307 28.5225C19.9307 29.1032 19.4585 29.5756 18.8777 29.5756C18.2969 29.5756 17.8246 29.1033 17.8246 28.5225C17.8246 28.2319 17.5887 27.996 17.2981 27.996C17.0074 27.996 16.7716 28.2319 16.7716 28.5225C16.7716 29.5008 17.4455 30.3185 18.3511 30.5539V30.6286C18.3511 30.9193 18.587 31.1551 18.8777 31.1551C19.1683 31.1551 19.4042 30.9193 19.4042 30.6286V30.5539C20.3098 30.3185 20.9838 29.5008 20.9838 28.5225C20.9838 27.3609 20.0391 26.4164 18.8777 26.4164C18.2969 26.4164 17.8246 25.9441 17.8246 25.3633C17.8246 24.7825 18.2968 24.3102 18.8777 24.3102Z" fill="#4C2A2A"/>
<path d="M38.3592 34.3143C38.068 34.3143 37.8326 34.5502 37.8326 34.8408V36.4204H25.7224C25.4312 36.4204 25.1959 36.6563 25.1959 36.9469C25.1959 37.2376 25.4312 37.4734 25.7224 37.4734H38.3592C38.6503 37.4734 38.8857 37.2376 38.8857 36.9469V34.8408C38.8857 34.5502 38.6503 34.3143 38.3592 34.3143Z" fill="#4C2A2A"/>
<path d="M39.4123 30.1021C39.1211 30.1021 38.8858 30.338 38.8858 30.6286V32.2082H29.9347C29.6436 32.2082 29.4082 32.4441 29.4082 32.7347C29.4082 33.0253 29.6436 33.2612 29.9347 33.2612H39.4123C39.7035 33.2612 39.9388 33.0253 39.9388 32.7347V30.6286C39.9388 30.338 39.7035 30.1021 39.4123 30.1021Z" fill="#4C2A2A"/>
<path d="M18.8775 18.5184C14.2324 18.5184 10.453 22.2978 10.453 26.9429C10.453 31.5879 14.2324 35.3674 18.8775 35.3674C23.5225 35.3674 27.302 31.5879 27.302 26.9429C27.302 22.2978 23.5225 18.5184 18.8775 18.5184ZM18.8775 34.3143C14.8126 34.3143 11.506 31.0077 11.506 26.9429C11.506 22.8781 14.8126 19.5714 18.8775 19.5714C22.9423 19.5714 26.2489 22.8781 26.2489 26.9429C26.2489 31.0077 22.9423 34.3143 18.8775 34.3143Z" fill="#4C2A2A"/>
</svg>
