<svg version="1.1" xmlns="http://www.w3.org/2000/svg" xmlns:xlink="http://www.w3.org/1999/xlink" role="group" style="width: 100%; height: 100%; overflow: visible;"><defs><clipPath id="id-1397"><rect width="424" height="356"></rect></clipPath><linearGradient id="gradient-id-1420" x1="1%" x2="99%" y1="59%" y2="41%"><stop stop-color="#474758" offset="0"></stop><stop stop-color="#474758" stop-opacity="1" offset="0.75"></stop><stop stop-color="#3cabff" stop-opacity="1" offset="0.755"></stop></linearGradient><filter id="filter-id-1429" filterUnits="objectBoundingBox" width="200%" height="200%" x="-50%" y="-50%"></filter><filter id="filter-id-1450" filterUnits="objectBoundingBox" width="200%" height="200%" x="-50%" y="-50%"></filter><clipPath id="id-1501"><path d=" M-110.32,0  L-157.6,0  a157.60000000000002,157.60000000000002,0,0,1,315.2,0 L110.32,0  a110.32,110.32,0,0,0,-220.64,0 L-110.32,0 " r="0"></path></clipPath><filter id="filter-id-1402" filterUnits="objectBoundingBox" width="200%" height="200%" x="-50%" y="-50%"><feGaussianBlur result="blurOut" in="SourceGraphic" stdDeviation="1.5"></feGaussianBlur><feOffset result="offsetBlur" dx="1" dy="1"></feOffset><feFlood flood-color="#000000" flood-opacity="0.5"></feFlood><feComposite in2="offsetBlur" operator="in"></feComposite><feMerge><feMergeNode></feMergeNode><feMergeNode in="SourceGraphic"></feMergeNode></feMerge></filter><filter id="filter-id-1417" filterUnits="objectBoundingBox" width="120%" height="120%" x="-10%" y="-10%"><feColorMatrix type="saturate" values="0"></feColorMatrix></filter></defs><g><g fill="#ffffff" fill-opacity="0"><rect width="424" height="356"></rect></g><g><g role="region" clip-path="url(&quot;http://213.79.96.2/monitoring-krt/tab/1/card/1#id-1397&quot;)" opacity="1" aria-label="Chart"><g transform="translate(15,15)"><g><g><g><g><g><g><g transform="translate(0,0)"><g fill="#ffffff" fill-opacity="0" transform="translate(0,0)"><rect width="394" height="326"></rect></g><g><g transform="translate(197,241.8)"><g><g opacity="0"></g><g><g></g></g><g aria-hidden="true"><g><g><g><g><g><g fill-opacity="0" stroke-opacity="1" stroke="#000000" stroke-width="1" display="none"><path d=" M-31.6557,97.4262  L-27.9475,86.0136 "></path></g><g fill-opacity="0" stroke-opacity="1" stroke="#000000" stroke-width="1" display="none"><path d=" M-82.8757,60.2127  L-73.1675,53.1593 "></path></g><g fill-opacity="0" stroke-opacity="1" stroke="#000000" stroke-width="1"><path d=" M-102.44,0  L-90.44,0 "></path></g><g fill-opacity="0" stroke-opacity="1" stroke="#000000" stroke-width="1"><path d=" M-82.8757,-60.2127  L-73.1675,-53.1593 "></path></g><g fill-opacity="0" stroke-opacity="1" stroke="#000000" stroke-width="1"><path d=" M-31.6557,-97.4262  L-27.9475,-86.0136 "></path></g><g fill-opacity="0" stroke-opacity="1" stroke="#000000" stroke-width="1"><path d=" M31.6557,-97.4262  L27.9475,-86.0136 "></path></g><g fill-opacity="0" stroke-opacity="1" stroke="#000000" stroke-width="1"><path d=" M82.8757,-60.2127  L73.1675,-53.1593 "></path></g><g fill-opacity="0" stroke-opacity="1" stroke="#000000" stroke-width="1"><path d=" M102.44,0  L90.44,0 "></path></g><g fill-opacity="0" stroke-opacity="1" stroke="#000000" stroke-width="1" display="none"><path d=" M82.8757,60.2127  L73.1675,53.1593 "></path></g></g></g><g fill="#000000" aria-label="L" fill-opacity="0" opacity="0" stroke-opacity="0" transform="translate(-71.94,0)" style="pointer-events: none;"><g transform="translate(-4.5,-9.5)" style="-webkit-user-select: none;"><text x="0" y="18.890625" dy="-5.1"><tspan>L</tspan></text></g></g><g fill="#000000" aria-label="undefined%" transform="translate(-27.02,73.17399999999999)" display="none"><g transform="translate(-20,-9.5)" style="-webkit-user-select: none;"><text x="0" y="18.890625" dy="-5.1"><tspan>-40%</tspan></text></g></g><g fill="#000000" aria-label="undefined%" transform="translate(-70.336,45.224000000000004)" display="none"><g transform="translate(-19.5,-9.5)" style="-webkit-user-select: none;"><text x="0" y="18.890625" dy="-5.1"><tspan>-20%</tspan></text></g></g><g fill="#000000" aria-label="undefined%" transform="translate(-79.44,0)"><g transform="translate(-12,-9.5)" style="-webkit-user-select: none;"><text x="0" y="18.890625" dy="-5.1"><tspan>0%</tspan></text></g></g><g fill="#000000" aria-label="undefined%" transform="translate(-67.504,-45.224000000000004)"><g transform="translate(-16,-9.5)" style="-webkit-user-select: none;"><text x="0" y="18.890625" dy="-5.1"><tspan>20%</tspan></text></g></g><g fill="#000000" aria-label="undefined%" transform="translate(-25.939,-73.17399999999999)"><g transform="translate(-16.5,-9.5)" style="-webkit-user-select: none;"><text x="0" y="18.890625" dy="-5.1"><tspan>40%</tspan></text></g></g><g fill="#000000" aria-label="undefined%" transform="translate(25.939,-73.17399999999999)"><g transform="translate(-16.5,-9.5)" style="-webkit-user-select: none;"><text x="0" y="18.890625" dy="-5.1"><tspan>60%</tspan></text></g></g><g fill="#000000" aria-label="undefined%" transform="translate(67.909,-45.224000000000004)"><g transform="translate(-16.5,-9.5)" style="-webkit-user-select: none;"><text x="0" y="18.890625" dy="-5.1"><tspan>80%</tspan></text></g></g><g fill="#000000" aria-label="undefined%" transform="translate(87.44,0)"><g transform="translate(-20,-9.5)" style="-webkit-user-select: none;"><text x="0" y="18.890625" dy="-5.1"><tspan>100%</tspan></text></g></g><g fill="#000000" aria-label="undefined%" transform="translate(69.931,45.224000000000004)" display="none"><g transform="translate(-19,-9.5)" style="-webkit-user-select: none;"><text x="0" y="18.890625" dy="-5.1"><tspan>120%</tspan></text></g></g><g><g></g></g></g></g><g fill="#000000"><g display="none"></g></g><g stroke="#000000" stroke-opacity="0.15" fill="none"><path transform="translate(-0.5,-0.5)"></path></g><g stroke="#000000" stroke-opacity="1" fill="none" style="pointer-events: none;"><path d=" M-102.44,0  a102.44000000000001,102.44000000000001,0,0,1,204.88,0" transform="translate(-0.5,-0.5)"></path></g></g></g><g><g></g></g><g aria-hidden="true"><g><g><g><g><g><g fill="#333333" fill-opacity="1" style="pointer-events: none;"><path d=" M-110.32,0  L-157.6,0  a157.60000000000002,157.60000000000002,0,0,1,147.7042,-157.289 L-6.9271,-110.1023  a110.32,110.32,0,0,0,-103.3929,110.1023 L-110.32,0 "></path></g><g stroke="#000000" stroke-opacity="0.15" fill="none"><path d=" M-110.32,0  L-157.6,0 "></path></g><g fill="#ececec" fill-opacity="1" style="pointer-events: none;"><path d=" M-6.9271,-110.1023  L-9.8958,-157.289  a157.60000000000002,157.60000000000002,0,0,1,167.4958,157.289 L110.32,0  a110.32,110.32,0,0,0,-117.2471,-110.1023 L-6.9271,-110.1023 "></path></g><g stroke="#000000" stroke-opacity="0.15" fill="none"><path d=" M-6.9271,-110.1023  L-9.8958,-157.289 "></path></g><g fill-opacity="0" stroke-opacity="0" stroke="#000000" stroke-width="1"><path d=" M-157.6,0  L-162.6,0 "></path></g><g fill-opacity="0" stroke-opacity="0" stroke="#000000" stroke-width="1"><path d=" M-9.8958,-157.289  L-10.2097,-162.2791 "></path></g></g></g><g fill="#000000" aria-label="L" fill-opacity="0" opacity="0" stroke-opacity="0" transform="translate(-177.1,0)" display="none" style="pointer-events: none;"><g transform="translate(-4.5,-9.5)" style="-webkit-user-select: none;"><text x="0" y="18.90625" dy="-5.105"><tspan>L</tspan></text></g></g><g fill="#000000" transform="translate(-172.6,0)"><g display="none"></g></g><g fill="#000000" transform="translate(-10.838,-172.259)"><g display="none"></g></g><g fill="#888888" stroke="#888888" transform="translate(0,0) rotate(266.4)"><g><g display="none"><circle></circle></g><g transform="translate(39.4,-5)"><path d=" M0,0  L118.2,4.5  L118.2,5.5  L0,10 "></path></g></g></g><g><g></g></g></g></g><g fill="#000000"><g display="none"></g></g><g stroke="#000000" stroke-opacity="0.15" fill="none"><path transform="translate(-0.5,-0.5)"></path></g><g stroke="#000000" stroke-opacity="0" fill="none" style="pointer-events: none;"><path d=" M-157.6,0  a157.60000000000002,157.60000000000002,0,0,1,315.2,0" transform="translate(-0.5,-0.5)"></path></g></g></g><g fill="#000000" font-size="28" font-family="'TTNorms-Bold', Comfortaa-Bold, 'Source Sans Pro', Helvetica, sans-serif"><g transform="translate(-28.5,-33)" style="-webkit-user-select: none;"><text x="0" y="33.0625" dy="-8.927"><tspan>48%</tspan></text></g></g><g><g></g></g><g clip-path="url(&quot;http://213.79.96.2/monitoring-krt/tab/1/card/1#id-1501&quot;)"><g></g></g></g></g><g><g></g></g><g role="button" focusable="true" tabindex="0" opacity="0" visibility="hidden" aria-hidden="true" transform="translate(354,-3)" aria-labelledby="id-1383-title"><g fill="#6794dc" stroke="#ffffff" fill-opacity="1" stroke-opacity="0" transform="translate(0,8)"><path d="M17,0 L18,0 a17,17 0 0 1 17,17 L35,17 a17,17 0 0 1 -17,17 L17,34 a17,17 0 0 1 -17,-17 L0,17 a17,17 0 0 1 17,-17 Z"></path></g><g transform="translate(9,9)"><g stroke="#ffffff" transform="translate(0,8)" style="pointer-events: none;"><path d=" M0,0  L11,0 " transform="translate(2.5,7.5)"></path></g><g fill="#000000" transform="translate(17,8)" style="pointer-events: none;"><g display="none"></g></g></g><title id="id-1383-title">Zoom Out</title></g></g></g><g><g></g></g><g transform="translate(394,0)"><g></g></g></g></g><g><g></g></g><g transform="translate(0,326)"><g></g></g></g></g></g></g></g></g><g><g><g role="tooltip" visibility="hidden" opacity="0"><g fill="#ffffff" fill-opacity="0.9" stroke-width="1" stroke-opacity="1" stroke="#ffffff" filter="url(&quot;http://213.79.96.2/monitoring-krt/tab/1/card/1#filter-id-1402&quot;)" transform="translate(0,6)" style="pointer-events: none;"><path d="M3,0 L3,0 L0,-6 L13,0 L21,0 a3,3 0 0 1 3,3 L24,8 a3,3 0 0 1 -3,3 L3,11 a3,3 0 0 1 -3,-3 L0,3 a3,3 0 0 1 3,-3"></path></g><g><g fill="#ffffff" transform="translate(12,6)" style="pointer-events: none;"><g transform="translate(0,7)" display="none"></g></g></g></g><g visibility="hidden" display="none"><g fill="#ffffff" opacity="1"><rect width="424" height="356"></rect></g><g><g><g><g stroke-opacity="1" fill="#f3f3f3" fill-opacity="0.8"><g><g><path d=" M53,0  a53,53,0,0,1,-106,0 a53,53,0,0,1,106,0 M42,0  a42,42,0,0,0,-84,0 a42,42,0,0,0,84,0 L42,0 "></path></g></g></g><g stroke-opacity="1" fill="#000000" fill-opacity="0.2"><g><g><path d=""></path></g></g></g><g fill="#000000" fill-opacity="0.4"><g display="none"></g></g></g></g></g></g><g opacity="0.4" aria-labelledby="id-1417-title" transform="translate(0,335)" style="cursor: pointer;" filter="url(&quot;http://213.79.96.2/monitoring-krt/tab/1/card/1#filter-id-1417&quot;)"><g fill="#ffffff" opacity="0"><rect width="66" height="21"></rect></g><g><g shape-rendering="auto" fill="none" stroke-opacity="1" stroke-width="1.7999999999999998" stroke="#3cabff"><path d=" M15,15  C17.4001,15 22.7998,15.0001 27,15 C31.2002,14.9999 33.2999,6 36,6 C38.7001,6 38.6999,10.5 40.5,10.5 C42.3001,10.5 42.2999,6 45,6 C47.7001,6 50.9999,14.9999 54,15 C57.0002,15.0001 58.7999,15 60,15"></path></g><g shape-rendering="auto" fill="none" stroke-opacity="1" stroke-width="1.7999999999999998" stroke="url(&quot;http://213.79.96.2/monitoring-krt/tab/1/card/1#gradient-id-1420&quot;)"><path d=" M6,15  C8.2501,15 9.7498,15.0001 15,15 C20.2502,14.9999 20.7748,3.6 27,3.6 C33.2252,3.6 33.8998,14.9999 39.9,15 C45.9002,15.0001 45.9748,15 51,15 C56.0252,15 57.7499,15 60,15"></path></g></g><title id="id-1417-title">Chart created using amCharts library</title></g><g role="tooltip" visibility="hidden" opacity="0" transform="translate(146.78330757997873,177.80166691763463)"><g fill="#000000" fill-opacity="1" stroke-width="1" stroke-opacity="1" stroke="#000000" transform="translate(-10,-15)" style="pointer-events: none;"><path d="M0,0 L20,0 a0,0 0 0 1 0,0 L20,10 a0,0 0 0 1 -0,0 L20,10 L15,10 L10,15 L5,10 L0,10 a0,0 0 0 1 -0,-0 L0,0 a0,0 0 0 1 0,-0"></path></g><g><g fill="#ffffff" transform="translate(0,-15)" style="pointer-events: none;"><g transform="translate(0,5)" display="none"></g></g></g></g><g role="tooltip" visibility="hidden" opacity="0" transform="translate(111.66662704612115,135.2641029502071)"><g fill="#000000" fill-opacity="1" stroke-width="1" stroke-opacity="1" stroke="#000000" transform="translate(-10,-15)" style="pointer-events: none;"><path d="M0,0 L20,0 a0,0 0 0 1 0,0 L20,10 a0,0 0 0 1 -0,0 L20,10 L15,10 L10,15 L5,10 L0,10 a0,0 0 0 1 -0,-0 L0,0 a0,0 0 0 1 0,-0"></path></g><g><g fill="#ffffff" transform="translate(0,-15)" style="pointer-events: none;"><g transform="translate(0,5)" display="none"></g></g></g></g></g></g></g></g></svg>