<svg width="720" height="320" viewBox="0 0 720 320" fill="none" xmlns="http://www.w3.org/2000/svg">
<g opacity="0.7">
<path d="M559.998 239.992V243.281C561.768 285.94 596.898 319.99 639.999 319.99V239.992H559.998Z" fill="#D71827"/>
<path d="M720 79.9976H639.999V159.995H720V79.9976Z" fill="#B91827"/>
<path d="M708.887 79.9976H708.856H681.152V91.1101H701.011L639.999 152.119V159.995H647.834L708.887 98.9338V118.844H720V79.9976H708.887Z" fill="#9B1827"/>
<path d="M720 159.995H639.999V239.992C684.179 239.992 720 204.172 720 159.995Z" fill="#D71827"/>
<path d="M440.373 79.9976H456.074L399.985 136.084V120.384L440.373 79.9976ZM439.619 159.995L479.997 119.619V103.909L423.908 159.995H439.619ZM472.141 79.9976L399.995 152.14V159.995H407.851L479.997 87.8528V79.9976H472.141Z" fill="#D71827"/>
<path d="M160.002 239.992V247.847L87.8567 319.99H80.0012V312.134L152.147 239.992H160.002ZM151.393 319.979L160.002 311.37V295.67L135.681 319.99H151.393V319.979ZM103.914 319.979H119.614L159.992 279.603V263.903L103.914 319.979ZM80.0012 248.601V264.301L104.322 239.982H88.6109L80.0012 248.601ZM80.0012 280.368V296.068L136.09 239.982H120.389L80.0012 280.368Z" fill="#9B1827"/>
<path d="M160.002 304.269V239.982H90.7476C125.27 244.527 153.006 270.586 160.002 304.269Z" fill="#B91827"/>
<path d="M170.728 159.995H239.993V90.7224C202.003 90.7224 170.728 121.997 170.728 159.995Z" fill="#D71827"/>
<path d="M204.507 219.474L239.993 159.994H170.728C170.728 184.356 183.59 206.989 204.507 219.474Z" fill="#D71827"/>
<path d="M201.291 192.096L239.993 159.984H189.707C189.707 171.715 193.813 183.079 201.291 192.096Z" fill="#9B1827"/>
<path d="M231.205 188.2L239.993 159.984H210.446C210.446 172.888 218.898 184.367 231.205 188.2Z" fill="#9B1827"/>
<path d="M149.266 79.9974C149.266 79.9451 149.266 79.9032 149.266 79.8508C149.266 41.6012 118.253 10.5889 80.0012 10.5889V79.9974H149.266Z" fill="#D71827"/>
<path d="M250.729 79.8508C250.729 79.9032 250.729 79.9451 250.729 79.9974H319.994V10.5889C281.743 10.5889 250.729 41.6012 250.729 79.8508Z" fill="#D71827"/>
<path d="M320.005 79.9976H240.003V159.995H320.005V79.9976Z" fill="#D71827"/>
<path d="M240.003 90.7224V159.984H309.269C309.269 121.997 278.004 90.7224 240.003 90.7224Z" fill="#9B1827"/>
<path d="M399.995 79.9976H319.994V159.995H399.995V79.9976Z" fill="#B91827"/>
<path d="M141.673 239.992C141.62 205.974 114.032 178.418 80.0012 178.418V239.992H141.673Z" fill="#9B1827"/>
<path d="M320.005 159.995H240.003V239.992H320.005V159.995Z" fill="#9B1827"/>
<path d="M559.998 79.9976H479.997V159.995H559.998V79.9976Z" fill="#B91827"/>
<path d="M14.0667 79.9976H7.40521C7.47853 119.965 40.0216 152.454 80.0012 152.454V145.793C43.6875 145.793 14.1401 116.289 14.0667 79.9976Z" fill="#D71827"/>
<path d="M80.0012 138.859V117.682C59.1891 117.682 42.2525 100.788 42.1792 79.9976H21.0006C21.0739 112.466 47.5105 138.859 80.0012 138.859Z" fill="#9B1827"/>
<path d="M61.7437 188.664C66.6753 187.5 69.7291 182.558 68.5646 177.627C67.4001 172.695 62.4583 169.642 57.5267 170.806C52.5951 171.971 49.5413 176.912 50.7058 181.844C51.8703 186.775 56.8121 189.829 61.7437 188.664Z" fill="#D71827"/>
<path d="M80.0012 0H0V79.9974H80.0012V0Z" fill="#D71827"/>
<path d="M5.21613 79.8509C5.21613 79.9032 5.21613 79.9451 5.21613 79.9975H80.0012V5.06934C38.7018 5.06934 5.21613 38.5534 5.21613 79.8509Z" fill="#B91827"/>
<path d="M38.9427 79.8508C38.9427 57.2174 57.3562 38.7943 80.0012 38.7943V20.9578C47.5315 20.9578 21.1053 47.3722 21.1053 79.8508C21.1053 79.9032 21.1053 79.9451 21.1053 79.9975H38.9427C38.9427 79.9451 38.9427 79.9032 38.9427 79.8508Z" fill="#9B1827"/>
<path d="M103.893 159.995H119.604L136.876 142.714L129.03 134.858L103.893 159.995Z" fill="#D71827"/>
<path d="M160.002 79.9976H152.126L80.0012 152.119V159.995H87.8358L160.002 87.8318V79.9976Z" fill="#D71827"/>
<path d="M120.358 79.9976L80.0012 120.352V136.052L136.059 79.9976H120.358Z" fill="#D71827"/>
<path d="M88.2183 82.1433C89.3828 77.2119 86.329 72.2703 81.3974 71.1059C76.4658 69.9415 71.524 72.9951 70.3595 77.9265C69.195 82.8578 72.2488 87.7994 77.1804 88.9639C82.112 90.1283 87.0538 87.0746 88.2183 82.1433Z" fill="#9B1827"/>
<path d="M388.893 19.481H377.79V79.9765H388.893V19.481Z" fill="#9B1827"/>
<path d="M399.995 0H388.893V79.9764H399.995V0Z" fill="#D71827"/>
<path d="M359.868 79.9784L370.971 80.0181L371.241 4.55576L360.138 4.51608L359.868 79.9784Z" fill="#D71827"/>
<path d="M348.756 79.9367L359.859 79.9766L359.955 53.2584L348.852 53.2185L348.756 79.9367Z" fill="#9B1827"/>
<path d="M331.104 79.9719H342.207V15.2346H331.104V79.9719Z" fill="#D71827"/>
<path d="M331.097 0H319.994V79.9764H331.097V0Z" fill="#9B1827"/>
<path d="M217.791 319.967H228.894V259.471H217.791V319.967Z" fill="#9B1827"/>
<path d="M239.993 239.992H228.891V319.969H239.993V239.992Z" fill="#D71827"/>
<path d="M199.862 319.96L210.964 320L211.235 244.538L200.132 244.498L199.862 319.96Z" fill="#D71827"/>
<path d="M188.761 319.919L199.863 319.958L199.959 293.24L188.856 293.201L188.761 319.919Z" fill="#9B1827"/>
<path d="M171.108 319.966H182.21V255.228H171.108V319.966Z" fill="#D71827"/>
<path d="M171.105 239.992H160.002V319.969H171.105V239.992Z" fill="#9B1827"/>
<path d="M270.41 288.348L320.005 239.992H250.739C250.729 258.048 257.799 275.413 270.41 288.348Z" fill="#9B1827"/>
<path d="M276.045 239.992C276.045 264.102 295.883 283.939 319.994 283.939V239.992H276.045V239.992Z" fill="#D71827"/>
<path d="M300.575 239.992C300.575 250.643 309.342 259.41 320.005 259.41V239.992H300.575Z" fill="#9B1827"/>
<path d="M18.3192 240.086C18.3192 240.055 18.3192 240.024 18.3192 239.992H0.0942383C0.0942383 240.024 0.0942383 240.055 0.0942383 240.086C0.0942383 284.212 35.8633 319.99 80.0011 319.99V301.766C45.9394 301.755 18.3192 274.147 18.3192 240.086Z" fill="#D71827"/>
<path d="M18.3297 239.992C18.3297 240.024 18.3297 240.055 18.3297 240.086C18.3297 274.147 45.9394 301.766 80.0116 301.766V239.992H18.3297V239.992Z" fill="#9B1827"/>
<path d="M479.997 239.992H399.995V319.989H479.997V239.992Z" fill="#9B1827"/>
<path d="M479.997 267.119V239.982H454.618C454.618 254.393 465.825 266.176 479.997 267.119Z" fill="#B91827"/>
<path d="M479.997 319.937V239.992H401.828C401.828 283.551 436.665 318.963 479.997 319.937Z" fill="#B91827"/>
<path d="M479.997 299.262V239.982H422.504C422.504 272.136 448.082 298.299 479.997 299.262Z" fill="#D71827"/>
<path d="M434.633 25.9954C434.633 31.0647 430.527 35.1703 425.458 35.1703C420.388 35.1703 416.283 31.0647 416.283 25.9954C416.283 20.9262 420.388 16.8206 425.458 16.8206C430.527 16.8206 434.633 20.9262 434.633 25.9954Z" fill="#9B1827"/>
<path d="M559.997 0H479.996V79.9974H559.997V0Z" fill="#B91827"/>
<path d="M520.374 0H536.075L479.976 56.0966V40.3967L520.374 0ZM519.557 80.0602L560.04 39.5797V23.8693L503.846 80.0602H519.557ZM552.142 0L479.976 72.1631V80.0602H487.789L560.04 7.81331V0H552.142Z" fill="#D71827"/>
<path d="M639.999 0H559.998V79.9974H639.999V0Z" fill="#9B1827"/>
<path d="M560.123 10.8611C560.082 10.8611 560.04 10.8611 559.998 10.8611V79.9869H629.389C629.315 41.8001 598.333 10.8611 560.123 10.8611Z" fill="#B91827"/>
<path d="M320.002 239.985H400.003V159.987H320.002V239.985Z" fill="#9B1827"/>
<path d="M331.065 159.994H319.994V239.992H331.065V159.994Z" fill="#D71827"/>
<path d="M342.168 159.994H331.065V239.992H342.168V159.994Z" fill="#B91827"/>
<path d="M382.535 220.679C388.369 220.679 393.082 219.045 396.665 215.777C398.037 214.52 399.147 213.148 399.995 211.651V195.458C399.126 193.898 397.984 192.452 396.549 191.112C392.894 187.697 388.275 185.99 382.692 185.99H359.419V211.137H353.428V220.679H359.419V225.078H353.428V234.651H359.419V239.982H371.37V234.651H388.107V225.078H371.37V220.679H382.535ZM371.37 196.391H382.546C384.724 196.391 386.526 197.103 387.961 198.527C389.385 199.952 390.097 201.753 390.097 203.942C390.097 205.963 389.385 207.671 387.961 209.064C386.536 210.457 384.735 211.148 382.546 211.148H371.37V196.391Z" fill="#D71827"/>
<path d="M634.071 211.787C636.186 211.787 638.155 212.153 639.999 212.855V224.344C639.716 223.873 639.381 223.423 638.972 223.014C637.663 221.705 636.029 221.056 634.071 221.056C632.112 221.056 630.478 221.705 629.169 223.014C627.859 224.323 627.21 225.957 627.21 227.916C627.21 229.874 627.859 231.508 629.169 232.818C630.478 234.127 632.112 234.776 634.071 234.776C636.029 234.776 637.663 234.127 638.972 232.818C639.381 232.409 639.716 231.959 639.999 231.487V239.981H623.177C622.884 239.72 622.591 239.468 622.308 239.185C619.04 235.918 617.406 232.168 617.406 227.926C617.406 223.685 619.04 219.935 622.308 216.667C625.576 213.42 629.493 211.787 634.071 211.787ZM581.679 200.046C578.411 196.778 576.777 193.018 576.777 188.766C576.777 184.513 578.411 180.764 581.679 177.506C584.947 174.26 588.864 172.636 593.442 172.636C598.019 172.636 601.936 174.26 605.204 177.506C608.472 180.753 610.106 184.513 610.106 188.766C610.106 193.018 608.472 196.778 605.204 200.046C601.936 203.313 598.019 204.947 593.442 204.947C588.864 204.947 584.947 203.313 581.679 200.046ZM586.581 188.766C586.581 190.724 587.23 192.358 588.54 193.667C589.849 194.976 591.483 195.626 593.442 195.626C595.4 195.626 597.034 194.976 598.343 193.667C599.653 192.358 600.302 190.724 600.302 188.766C600.302 186.807 599.653 185.173 598.343 183.864C597.034 182.555 595.4 181.905 593.442 181.905C591.483 181.905 589.849 182.555 588.54 183.864C587.23 185.173 586.581 186.807 586.581 188.766ZM574.682 239.992H589.503L639.999 189.499V174.679L574.682 239.992Z" fill="#9B1827"/>
<path d="M479.998 239.985H560V159.987H479.998V239.985Z" fill="#D71827"/>
<path d="M559.998 160.529L530.084 190.557L523.715 184.22L515.703 176.229L505.145 186.828L502.746 184.44H502.757L494.189 175.904L479.997 190.138V207.283L494.21 193.007L505.166 203.921L507.512 201.575L507.522 201.585L515.734 193.332L530.042 207.587L530.126 207.503L530.199 207.576L559.998 177.664V160.529Z" fill="#B91827"/>
<path d="M559.998 188.64L528.858 219.893L522.49 213.557L514.477 205.576L503.919 216.165L501.521 213.777H501.531L492.953 205.241L479.997 218.249V235.384L492.984 222.354L503.94 233.257L506.287 230.911L506.297 230.922L514.509 222.679L528.816 236.923L528.9 236.839L528.973 236.913L559.998 205.775V188.64Z" fill="#9B1827"/>
</g>
</svg>
