<svg width="40" height="40" viewBox="0 0 40 40" fill="none" xmlns="http://www.w3.org/2000/svg">
<circle cx="19" cy="20" r="18" fill="#FFEBEC"/>
<path d="M24.6693 17.1405H23.6163C22.1646 17.1405 20.9836 18.3215 20.9836 19.7732V21.3527C20.9836 23.095 22.4005 24.5119 24.1428 24.5119C25.8851 24.5119 27.3019 23.095 27.3019 21.3527V19.7732C27.302 18.3215 26.121 17.1405 24.6693 17.1405ZM26.2489 21.3527C26.2489 22.5143 25.3043 23.4588 24.1428 23.4588C22.9813 23.4588 22.0367 22.5142 22.0367 21.3527V19.7732C22.0367 18.9023 22.7454 18.1936 23.6163 18.1936H24.6694C25.5403 18.1936 26.249 18.9023 26.249 19.7732L26.2489 21.3527Z" fill="#4C2A2A"/>
<path d="M25.7224 12.4017V13.9813C25.7224 15.7236 27.1393 17.1405 28.8816 17.1405C30.6239 17.1405 32.0408 15.7236 32.0408 13.9813V12.4017C32.0408 10.9501 30.8598 9.76904 29.4081 9.76904H28.3551C26.9034 9.7691 25.7224 10.9501 25.7224 12.4017ZM26.7755 12.4017C26.7755 11.5308 27.4842 10.8221 28.3551 10.8221H29.4082C30.2791 10.8221 30.9878 11.5308 30.9878 12.4017V13.9813C30.9878 15.1429 30.0432 16.0874 28.8817 16.0874C27.7201 16.0874 26.7756 15.1428 26.7756 13.9813L26.7755 12.4017Z" fill="#4C2A2A"/>
<path d="M33.6204 24.5119C35.3627 24.5119 36.7796 23.095 36.7796 21.3527V19.7732C36.7796 18.3215 35.5986 17.1405 34.1469 17.1405H33.0939C31.6422 17.1405 30.4612 18.3215 30.4612 19.7732V21.3527C30.4612 23.095 31.8781 24.5119 33.6204 24.5119ZM31.5143 19.7732C31.5143 18.9023 32.223 18.1936 33.0939 18.1936H34.147C35.0179 18.1936 35.7266 18.9023 35.7266 19.7732V21.3527C35.7266 22.5143 34.782 23.4588 33.6205 23.4588C32.4589 23.4588 31.5144 22.5142 31.5144 21.3527L31.5143 19.7732Z" fill="#4C2A2A"/>
<path d="M25.7445 25.5719C25.5092 25.5766 25.287 25.7172 25.218 25.9468L24.1429 29.5266L23.0677 25.9472C23.0008 25.725 22.7965 25.5729 22.5643 25.5723C20.7378 25.5671 19.3935 25.962 18.6127 26.7418C18.0972 27.2562 17.8245 27.9417 17.8245 28.7241V33.4629C17.8245 33.7535 18.0604 33.9894 18.351 33.9894C18.6416 33.9894 18.8775 33.7535 18.8775 33.4629V28.7241C18.8775 28.2203 19.0386 27.8043 19.3566 27.4868C19.8752 26.9693 20.8441 26.676 22.1735 26.6312L23.6384 31.5084C23.7053 31.7306 23.9106 31.8833 24.1428 31.8833C24.375 31.8833 24.5803 31.7306 24.6472 31.5084L26.112 26.6306C27.441 26.6759 28.4103 26.9692 28.929 27.4868C29.247 27.8043 29.4081 28.2202 29.4081 28.7241V33.4629C29.4081 33.7535 29.644 33.9894 29.9346 33.9894C30.2252 33.9894 30.4611 33.7535 30.4611 33.4629V28.7241C30.4611 27.9416 30.1884 27.2561 29.6729 26.7417C28.8953 25.9652 27.5737 25.5719 25.7445 25.5719Z" fill="#4C2A2A"/>
<path d="M19.404 17.1405C21.1463 17.1405 22.5632 15.7236 22.5632 13.9813V12.4017C22.5632 10.9501 21.3822 9.76904 19.9306 9.76904H18.8775C17.4259 9.76904 16.2448 10.95 16.2448 12.4017V13.9813C16.2449 15.7236 17.6617 17.1405 19.404 17.1405ZM17.2979 12.4017C17.2979 11.5308 18.0067 10.8221 18.8775 10.8221H19.9306C20.8015 10.8221 21.5102 11.5308 21.5102 12.4017V13.9813C21.5102 15.1429 20.5656 16.0874 19.4041 16.0874C18.2426 16.0874 17.298 15.1428 17.298 13.9813L17.2979 12.4017Z" fill="#4C2A2A"/>
<path d="M39.1506 26.7418C38.3729 25.9652 37.0513 25.5719 35.2221 25.5719C34.9899 25.5766 34.7646 25.7172 34.6956 25.9468L33.6204 29.5266L32.5452 25.9472C32.4783 25.725 32.274 25.5729 32.0424 25.5723C31.6749 25.5781 31.3058 25.587 30.9651 25.6197C30.6755 25.6476 30.4633 25.9046 30.4907 26.1941C30.5186 26.4832 30.7744 26.6901 31.0651 26.668C31.2531 26.6501 31.449 26.6375 31.6512 26.6312L33.116 31.5084C33.1829 31.7306 33.3882 31.8833 33.6204 31.8833C33.8526 31.8833 34.058 31.7306 34.1249 31.5084L35.5897 26.6306C36.9186 26.6759 37.888 26.9692 38.4066 27.4868C38.7246 27.8043 38.8857 28.2202 38.8857 28.7241V32.4099C38.8857 32.7005 39.1216 32.9364 39.4122 32.9364C39.7029 32.9364 39.9388 32.7005 39.9388 32.4099V28.7242C39.9388 27.9417 39.666 27.2562 39.1506 26.7418Z" fill="#4C2A2A"/>
<path d="M14.6653 24.5119C16.4076 24.5119 17.8245 23.095 17.8245 21.3527V19.7732C17.8245 18.3215 16.6435 17.1405 15.1918 17.1405H14.1388C12.6872 17.1405 11.5061 18.3215 11.5061 19.7732V21.3527C11.5061 23.095 12.923 24.5119 14.6653 24.5119ZM12.5592 19.7732C12.5592 18.9023 13.2679 18.1936 14.1388 18.1936H15.1919C16.0627 18.1936 16.7714 18.9023 16.7714 19.7732V21.3527C16.7714 22.5143 15.8268 23.4588 14.6653 23.4588C13.5038 23.4588 12.5592 22.5142 12.5592 21.3527L12.5592 19.7732Z" fill="#4C2A2A"/>
<path d="M17.3495 25.6224C17.011 25.5887 16.645 25.5719 16.2617 25.5719C16.0264 25.5735 15.8089 25.7188 15.7405 25.9468L14.6653 29.5266L13.5901 25.9472C13.5232 25.725 13.3189 25.5729 13.0867 25.5723C11.2212 25.5671 9.91596 25.962 9.13512 26.7418C8.61965 27.2562 8.34692 27.9417 8.34692 28.7242V32.4099C8.34692 32.7005 8.58281 32.9364 8.87343 32.9364C9.16405 32.9364 9.39994 32.7005 9.39994 32.4099V28.7242C9.39994 28.2203 9.56105 27.8043 9.87907 27.4869C10.3977 26.9693 11.3665 26.676 12.696 26.6312L14.1608 31.5085C14.2277 31.7307 14.433 31.8834 14.6652 31.8834C14.8974 31.8834 15.1028 31.7307 15.1696 31.5085L16.6345 26.6307C16.8477 26.638 17.0515 26.6512 17.2442 26.6707C17.5391 26.7017 17.7918 26.488 17.8208 26.1989C17.8498 25.9093 17.6386 25.6519 17.3495 25.6224Z" fill="#4C2A2A"/>
</svg>
