<svg width="346" height="196" viewBox="0 0 346 196" fill="none" xmlns="http://www.w3.org/2000/svg">
<rect width="346" height="196" fill="white"/>
<path d="M2.73438 185.118C2.16927 185.838 1.88672 186.834 1.88672 188.105C1.88672 189.372 2.16927 190.366 2.73438 191.086C3.29948 191.801 3.97852 192.159 4.77148 192.159C5.55534 192.159 6.22754 191.799 6.78809 191.079C7.34863 190.354 7.62891 189.361 7.62891 188.099C7.62891 186.827 7.34635 185.834 6.78125 185.118C6.21615 184.398 5.54167 184.038 4.75781 184.038C3.97396 184.038 3.29948 184.398 2.73438 185.118ZM7.51953 184.448C8.29427 185.369 8.68164 186.586 8.68164 188.099C8.68164 189.612 8.29655 190.831 7.52637 191.756C6.75618 192.676 5.83789 193.137 4.77148 193.137C3.69596 193.137 2.77083 192.676 1.99609 191.756C1.22591 190.831 0.84082 189.612 0.84082 188.099C0.84082 186.586 1.22819 185.369 2.00293 184.448C2.77767 183.523 3.69596 183.061 4.75781 183.061C5.82422 183.061 6.74479 183.523 7.51953 184.448ZM12.3184 186.807C12.651 187.107 13.0931 187.258 13.6445 187.258C14.196 187.258 14.6357 187.107 14.9639 186.807C15.2965 186.501 15.4629 186.116 15.4629 185.651C15.4629 185.182 15.2965 184.797 14.9639 184.496C14.6357 184.191 14.196 184.038 13.6445 184.038C13.0931 184.038 12.651 184.191 12.3184 184.496C11.9902 184.797 11.8262 185.182 11.8262 185.651C11.8262 186.116 11.9902 186.501 12.3184 186.807ZM11.6143 183.847C12.1748 183.323 12.8516 183.061 13.6445 183.061C14.4375 183.061 15.1143 183.323 15.6748 183.847C16.2354 184.366 16.5156 184.968 16.5156 185.651C16.5156 185.92 16.4701 186.178 16.3789 186.424C16.2923 186.665 16.1875 186.859 16.0645 187.005C15.946 187.146 15.8252 187.271 15.7021 187.381C15.5837 187.486 15.4811 187.563 15.3945 187.613L15.2578 187.682C15.3034 187.7 15.3626 187.725 15.4355 187.757C15.513 187.789 15.6475 187.875 15.8389 188.017C16.0303 188.158 16.1989 188.313 16.3447 188.481C16.4951 188.646 16.6296 188.878 16.748 189.179C16.8711 189.475 16.9326 189.792 16.9326 190.129C16.9326 190.949 16.6182 191.656 15.9893 192.248C15.3604 192.84 14.5788 193.137 13.6445 193.137C12.7103 193.137 11.9287 192.84 11.2998 192.248C10.6709 191.656 10.3564 190.949 10.3564 190.129C10.3564 189.792 10.4134 189.477 10.5273 189.186C10.6458 188.889 10.7871 188.655 10.9512 188.481C11.1152 188.304 11.277 188.151 11.4365 188.023C11.6006 187.896 11.7441 187.809 11.8672 187.764L12.0381 187.682C12.0016 187.663 11.9538 187.641 11.8945 187.613C11.8398 187.581 11.7396 187.508 11.5938 187.395C11.4479 187.276 11.318 187.146 11.2041 187.005C11.0947 186.859 10.9945 186.665 10.9033 186.424C10.8167 186.178 10.7734 185.92 10.7734 185.651C10.7734 184.968 11.0537 184.366 11.6143 183.847ZM15.2236 188.714C14.7861 188.304 14.2598 188.099 13.6445 188.099C13.0293 188.099 12.5007 188.304 12.0586 188.714C11.6211 189.124 11.4023 189.596 11.4023 190.129C11.4023 190.68 11.6074 191.157 12.0176 191.558C12.4323 191.959 12.9746 192.159 13.6445 192.159C14.319 192.159 14.8613 191.959 15.2715 191.558C15.6816 191.157 15.8867 190.68 15.8867 190.129C15.8867 189.596 15.6657 189.124 15.2236 188.714ZM18.7305 192.945C18.6074 192.813 18.5459 192.645 18.5459 192.439C18.5459 192.234 18.6074 192.068 18.7305 191.94C18.8581 191.808 19.029 191.742 19.2432 191.742C19.4574 191.742 19.626 191.808 19.749 191.94C19.8766 192.068 19.9404 192.234 19.9404 192.439C19.9404 192.645 19.8766 192.813 19.749 192.945C19.626 193.073 19.4574 193.137 19.2432 193.137C19.029 193.137 18.8581 193.073 18.7305 192.945ZM23.4473 185.118C22.8822 185.838 22.5996 186.834 22.5996 188.105C22.5996 189.372 22.8822 190.366 23.4473 191.086C24.0124 191.801 24.6914 192.159 25.4844 192.159C26.2682 192.159 26.9404 191.799 27.501 191.079C28.0615 190.354 28.3418 189.361 28.3418 188.099C28.3418 186.827 28.0592 185.834 27.4941 185.118C26.929 184.398 26.2546 184.038 25.4707 184.038C24.6868 184.038 24.0124 184.398 23.4473 185.118ZM28.2324 184.448C29.0072 185.369 29.3945 186.586 29.3945 188.099C29.3945 189.612 29.0094 190.831 28.2393 191.756C27.4691 192.676 26.5508 193.137 25.4844 193.137C24.4089 193.137 23.4837 192.676 22.709 191.756C21.9388 190.831 21.5537 189.612 21.5537 188.099C21.5537 186.586 21.9411 185.369 22.7158 184.448C23.4906 183.523 24.4089 183.061 25.4707 183.061C26.5371 183.061 27.4577 183.523 28.2324 184.448ZM30.085 183.197H36.251V184.182L31.9102 193H30.8574L35.1982 184.182H30.085V183.197ZM36.4355 192.945C36.3125 192.813 36.251 192.645 36.251 192.439C36.251 192.234 36.3125 192.068 36.4355 191.94C36.5632 191.808 36.734 191.742 36.9482 191.742C37.1624 191.742 37.3311 191.808 37.4541 191.94C37.5817 192.068 37.6455 192.234 37.6455 192.439C37.6455 192.645 37.5817 192.813 37.4541 192.945C37.3311 193.073 37.1624 193.137 36.9482 193.137C36.734 193.137 36.5632 193.073 36.4355 192.945ZM45.2812 193H38.9785C38.9785 192.357 39.1084 191.77 39.3682 191.236C39.6325 190.703 39.9583 190.275 40.3457 189.951C40.7331 189.623 41.1523 189.295 41.6035 188.967C42.0547 188.639 42.474 188.347 42.8613 188.092C43.2487 187.837 43.5723 187.52 43.832 187.142C44.0964 186.763 44.2285 186.36 44.2285 185.932C44.2285 185.362 44.0417 184.904 43.668 184.558C43.2943 184.211 42.7816 184.038 42.1299 184.038C41.8018 184.038 41.5033 184.097 41.2344 184.216C40.9701 184.33 40.765 184.469 40.6191 184.633C40.4779 184.797 40.3594 184.961 40.2637 185.125C40.1725 185.289 40.1087 185.43 40.0723 185.549L40.0312 185.72L39.1152 185.303C39.1243 185.239 39.1449 185.157 39.1768 185.057C39.2132 184.956 39.3044 184.779 39.4502 184.523C39.6006 184.268 39.776 184.043 39.9766 183.847C40.1771 183.651 40.4688 183.471 40.8516 183.307C41.2344 183.143 41.6605 183.061 42.1299 183.061C43.0641 183.061 43.8229 183.334 44.4062 183.881C44.9896 184.428 45.2812 185.111 45.2812 185.932C45.2812 186.406 45.1719 186.845 44.9531 187.251C44.7389 187.657 44.4678 187.998 44.1396 188.276C43.8161 188.55 43.4492 188.837 43.0391 189.138C42.6289 189.434 42.2393 189.71 41.8701 189.965C41.501 190.215 41.1569 190.521 40.8379 190.881C40.5234 191.241 40.3001 191.621 40.168 192.022H45.2812V193ZM48.8496 185.118C48.2845 185.838 48.002 186.834 48.002 188.105C48.002 189.372 48.2845 190.366 48.8496 191.086C49.4147 191.801 50.0938 192.159 50.8867 192.159C51.6706 192.159 52.3428 191.799 52.9033 191.079C53.4639 190.354 53.7441 189.361 53.7441 188.099C53.7441 186.827 53.4616 185.834 52.8965 185.118C52.3314 184.398 51.6569 184.038 50.873 184.038C50.0892 184.038 49.4147 184.398 48.8496 185.118ZM53.6348 184.448C54.4095 185.369 54.7969 186.586 54.7969 188.099C54.7969 189.612 54.4118 190.831 53.6416 191.756C52.8714 192.676 51.9531 193.137 50.8867 193.137C49.8112 193.137 48.8861 192.676 48.1113 191.756C47.3411 190.831 46.9561 189.612 46.9561 188.099C46.9561 186.586 47.3434 185.369 48.1182 184.448C48.8929 183.523 49.8112 183.061 50.873 183.061C51.9395 183.061 52.86 183.523 53.6348 184.448ZM62.4941 193H56.1914C56.1914 192.357 56.3213 191.77 56.5811 191.236C56.8454 190.703 57.1712 190.275 57.5586 189.951C57.946 189.623 58.3652 189.295 58.8164 188.967C59.2676 188.639 59.6868 188.347 60.0742 188.092C60.4616 187.837 60.7852 187.52 61.0449 187.142C61.3092 186.763 61.4414 186.36 61.4414 185.932C61.4414 185.362 61.2546 184.904 60.8809 184.558C60.5072 184.211 59.9945 184.038 59.3428 184.038C59.0146 184.038 58.7161 184.097 58.4473 184.216C58.1829 184.33 57.9779 184.469 57.832 184.633C57.6908 184.797 57.5723 184.961 57.4766 185.125C57.3854 185.289 57.3216 185.43 57.2852 185.549L57.2441 185.72L56.3281 185.303C56.3372 185.239 56.3577 185.157 56.3896 185.057C56.4261 184.956 56.5173 184.779 56.6631 184.523C56.8135 184.268 56.9889 184.043 57.1895 183.847C57.39 183.651 57.6816 183.471 58.0645 183.307C58.4473 183.143 58.8734 183.061 59.3428 183.061C60.277 183.061 61.0358 183.334 61.6191 183.881C62.2025 184.428 62.4941 185.111 62.4941 185.932C62.4941 186.406 62.3848 186.845 62.166 187.251C61.9518 187.657 61.6807 187.998 61.3525 188.276C61.029 188.55 60.6621 188.837 60.252 189.138C59.8418 189.434 59.4521 189.71 59.083 189.965C58.7139 190.215 58.3698 190.521 58.0508 190.881C57.7363 191.241 57.513 191.621 57.3809 192.022H62.4941V193ZM66.0625 185.118C65.4974 185.838 65.2148 186.834 65.2148 188.105C65.2148 189.372 65.4974 190.366 66.0625 191.086C66.6276 191.801 67.3066 192.159 68.0996 192.159C68.8835 192.159 69.5557 191.799 70.1162 191.079C70.6768 190.354 70.957 189.361 70.957 188.099C70.957 186.827 70.6745 185.834 70.1094 185.118C69.5443 184.398 68.8698 184.038 68.0859 184.038C67.3021 184.038 66.6276 184.398 66.0625 185.118ZM70.8477 184.448C71.6224 185.369 72.0098 186.586 72.0098 188.099C72.0098 189.612 71.6247 190.831 70.8545 191.756C70.0843 192.676 69.166 193.137 68.0996 193.137C67.0241 193.137 66.099 192.676 65.3242 191.756C64.554 190.831 64.1689 189.612 64.1689 188.099C64.1689 186.586 64.5563 185.369 65.3311 184.448C66.1058 183.523 67.0241 183.061 68.0859 183.061C69.1523 183.061 70.0729 183.523 70.8477 184.448Z" fill="#7D7D7D"/>
<rect x="34" y="38" width="276" height="138" fill="white"/>
<path d="M291 176C291 110.278 237.722 57 172 57C106.278 57 53 110.278 53 176" stroke="#EBEBEB" stroke-width="38"/>
<path d="M262 176C262 125.742 221.706 85 172 85C122.294 85 82 125.742 82 176" stroke="#EBEBEB" stroke-width="2"/>
<path d="M53 176C53 110.278 106.278 57 172 57C194.715 57 215.944 63.3644 234 74.4074" stroke="#333333" stroke-width="38"/>
<rect x="171" y="85" width="2" height="10" fill="#EBEBEB"/>
<rect x="133" y="94.7654" width="2" height="10" transform="rotate(-22.5 133 94.7654)" fill="#EBEBEB"/>
<rect x="209.827" y="94" width="2" height="10" transform="rotate(22.5 209.827 94)" fill="#EBEBEB"/>
<rect x="252" y="176" width="2" height="10" transform="rotate(-90 252 176)" fill="#EBEBEB"/>
<rect x="82" y="176" width="2" height="10" transform="rotate(-90 82 176)" fill="#EBEBEB"/>
<rect x="106" y="115.414" width="2" height="10" transform="rotate(-45 106 115.414)" fill="#EBEBEB"/>
<rect x="87" y="145.932" width="2" height="10" transform="rotate(-75 87 145.932)" fill="#EBEBEB"/>
<rect x="255.659" y="144" width="2" height="10" transform="rotate(75 255.659 144)" fill="#EBEBEB"/>
<rect x="238.427" y="115.644" width="2" height="10.503" transform="rotate(45 238.427 115.644)" fill="#EBEBEB"/>
<path d="M233.355 75.6776L186.974 149.804L182 146.449L233.355 75.6776Z" fill="#969696"/>
<path d="M117.312 6.81543C116.702 7.43522 116.396 8.19857 116.396 9.10547C116.396 10.0078 116.702 10.7689 117.312 11.3887C117.923 12.0085 118.666 12.3184 119.541 12.3184C120.421 12.3184 121.166 12.0085 121.776 11.3887C122.387 10.7689 122.692 10.0078 122.692 9.10547C122.692 8.19857 122.387 7.43522 121.776 6.81543C121.166 6.19108 120.421 5.87891 119.541 5.87891C118.666 5.87891 117.923 6.19108 117.312 6.81543ZM115.761 12.7148C114.735 11.7122 114.223 10.5068 114.223 9.09863C114.223 7.69043 114.735 6.4873 115.761 5.48926C116.791 4.49121 118.051 3.99219 119.541 3.99219C121.036 3.99219 122.296 4.49121 123.321 5.48926C124.351 6.4873 124.866 7.69043 124.866 9.09863C124.866 10.5068 124.351 11.7122 123.321 12.7148C122.296 13.7129 121.036 14.2119 119.541 14.2119C118.051 14.2119 116.791 13.7129 115.761 12.7148ZM128.934 12.1133H131.032C131.406 12.1133 131.72 11.9948 131.976 11.7578C132.231 11.5163 132.358 11.2383 132.358 10.9238C132.358 10.6048 132.231 10.3268 131.976 10.0898C131.72 9.84831 131.406 9.72754 131.032 9.72754H128.934V12.1133ZM131.101 14H126.828V4.19727H133.623V6.09082H128.934V7.84082H131.101C132.062 7.84082 132.862 8.1416 133.5 8.74316C134.138 9.34473 134.457 10.0716 134.457 10.9238C134.457 11.7715 134.138 12.4961 133.5 13.0977C132.862 13.6992 132.062 14 131.101 14ZM148.669 4.19727V12.1133H149.858V16.0303H147.753V14H136.344V4.19727H138.449V12.1133H141.457V4.19727H143.556V12.1133H146.563V4.19727H148.669ZM160.215 14H158.116V7.77246L153.29 14H151.465V4.19727H153.57V10.4316L158.396 4.19727H160.215V14ZM166.47 1.51074C166.629 1.67025 166.83 1.75 167.071 1.75C167.313 1.75 167.513 1.67025 167.673 1.51074C167.832 1.35124 167.912 1.15072 167.912 0.90918H169.313C169.313 1.54264 169.106 2.06445 168.691 2.47461C168.277 2.88021 167.737 3.08301 167.071 3.08301C166.41 3.08301 165.873 2.88021 165.458 2.47461C165.043 2.06445 164.836 1.54264 164.836 0.90918H166.23C166.23 1.15072 166.31 1.35124 166.47 1.51074ZM171.48 14H169.382V7.77246L164.556 14H162.73V4.19727H164.836V10.4316L169.662 4.19727H171.48V14ZM181.632 3.99219C182.147 3.99219 182.637 4.06055 183.102 4.19727C183.566 4.32943 183.947 4.49121 184.243 4.68262C184.544 4.87402 184.808 5.06543 185.036 5.25684C185.269 5.44824 185.435 5.61003 185.535 5.74219L185.692 5.94727L184.359 7.28027C184.332 7.24382 184.293 7.19368 184.243 7.12988C184.198 7.06152 184.09 6.94759 183.922 6.78809C183.758 6.62858 183.578 6.48958 183.382 6.37109C183.186 6.24805 182.928 6.13639 182.609 6.03613C182.29 5.93132 181.965 5.87891 181.632 5.87891C180.716 5.87891 179.95 6.18652 179.335 6.80176C178.72 7.41699 178.412 8.18262 178.412 9.09863C178.412 10.0146 178.72 10.7803 179.335 11.3955C179.95 12.0107 180.716 12.3184 181.632 12.3184C181.987 12.3184 182.327 12.2705 182.65 12.1748C182.979 12.0745 183.25 11.9583 183.464 11.8262C183.678 11.6895 183.867 11.5527 184.031 11.416C184.195 11.2793 184.314 11.1608 184.387 11.0605L184.496 10.917L185.761 12.25C185.724 12.3047 185.667 12.3776 185.59 12.4688C185.517 12.5553 185.351 12.7126 185.091 12.9404C184.836 13.1637 184.56 13.362 184.264 13.5352C183.972 13.7038 183.587 13.8587 183.108 14C182.634 14.1413 182.142 14.2119 181.632 14.2119C180.137 14.2119 178.875 13.7129 177.845 12.7148C176.819 11.7122 176.307 10.5068 176.307 9.09863C176.307 7.69043 176.819 6.4873 177.845 5.48926C178.875 4.49121 180.137 3.99219 181.632 3.99219ZM186.458 4.19727H194.155V6.09082H191.359V14H189.261V6.09082H186.458V4.19727ZM199.891 9.87109L198.701 6.65137L197.505 9.87109H199.891ZM200.588 11.6895H196.808L195.967 14H193.725L197.58 4.19727H199.815L203.671 14H201.429L200.588 11.6895ZM203.247 4.19727H210.944V6.09082H208.148V14H206.05V6.09082H203.247V4.19727ZM213.959 4.19727L216.27 8.81836L218.231 4.19727H220.474L217.042 11.5527C216.641 12.4004 216.169 13.043 215.627 13.4805C215.085 13.918 214.412 14.1367 213.61 14.1367C213.424 14.1367 213.237 14.1185 213.05 14.082C212.863 14.0456 212.724 14.0091 212.633 13.9727L212.489 13.9316V12.1133C212.722 12.2044 213.002 12.25 213.33 12.25C214.032 12.25 214.57 11.9242 214.943 11.2725L215.224 10.7803L211.724 4.19727H213.959ZM225.929 3.99219C226.444 3.99219 226.934 4.06055 227.398 4.19727C227.863 4.32943 228.244 4.49121 228.54 4.68262C228.841 4.87402 229.105 5.06543 229.333 5.25684C229.565 5.44824 229.732 5.61003 229.832 5.74219L229.989 5.94727L228.656 7.28027C228.629 7.24382 228.59 7.19368 228.54 7.12988C228.494 7.06152 228.387 6.94759 228.219 6.78809C228.055 6.62858 227.875 6.48958 227.679 6.37109C227.483 6.24805 227.225 6.13639 226.906 6.03613C226.587 5.93132 226.261 5.87891 225.929 5.87891C225.013 5.87891 224.247 6.18652 223.632 6.80176C223.017 7.41699 222.709 8.18262 222.709 9.09863C222.709 10.0146 223.017 10.7803 223.632 11.3955C224.247 12.0107 225.013 12.3184 225.929 12.3184C226.284 12.3184 226.624 12.2705 226.947 12.1748C227.275 12.0745 227.547 11.9583 227.761 11.8262C227.975 11.6895 228.164 11.5527 228.328 11.416C228.492 11.2793 228.611 11.1608 228.684 11.0605L228.793 10.917L230.058 12.25C230.021 12.3047 229.964 12.3776 229.887 12.4688C229.814 12.5553 229.647 12.7126 229.388 12.9404C229.132 13.1637 228.857 13.362 228.561 13.5352C228.269 13.7038 227.884 13.8587 227.405 14C226.931 14.1413 226.439 14.2119 225.929 14.2119C224.434 14.2119 223.172 13.7129 222.142 12.7148C221.116 11.7122 220.604 10.5068 220.604 9.09863C220.604 7.69043 221.116 6.4873 222.142 5.48926C223.172 4.49121 224.434 3.99219 225.929 3.99219Z" fill="black"/>
<path d="M275.734 185.118C275.169 185.838 274.887 186.834 274.887 188.105C274.887 189.372 275.169 190.366 275.734 191.086C276.299 191.801 276.979 192.159 277.771 192.159C278.555 192.159 279.228 191.799 279.788 191.079C280.349 190.354 280.629 189.361 280.629 188.099C280.629 186.827 280.346 185.834 279.781 185.118C279.216 184.398 278.542 184.038 277.758 184.038C276.974 184.038 276.299 184.398 275.734 185.118ZM280.52 184.448C281.294 185.369 281.682 186.586 281.682 188.099C281.682 189.612 281.297 190.831 280.526 191.756C279.756 192.676 278.838 193.137 277.771 193.137C276.696 193.137 275.771 192.676 274.996 191.756C274.226 190.831 273.841 189.612 273.841 188.099C273.841 186.586 274.228 185.369 275.003 184.448C275.778 183.523 276.696 183.061 277.758 183.061C278.824 183.061 279.745 183.523 280.52 184.448ZM285.318 186.807C285.651 187.107 286.093 187.258 286.645 187.258C287.196 187.258 287.636 187.107 287.964 186.807C288.297 186.501 288.463 186.116 288.463 185.651C288.463 185.182 288.297 184.797 287.964 184.496C287.636 184.191 287.196 184.038 286.645 184.038C286.093 184.038 285.651 184.191 285.318 184.496C284.99 184.797 284.826 185.182 284.826 185.651C284.826 186.116 284.99 186.501 285.318 186.807ZM284.614 183.847C285.175 183.323 285.852 183.061 286.645 183.061C287.438 183.061 288.114 183.323 288.675 183.847C289.235 184.366 289.516 184.968 289.516 185.651C289.516 185.92 289.47 186.178 289.379 186.424C289.292 186.665 289.188 186.859 289.064 187.005C288.946 187.146 288.825 187.271 288.702 187.381C288.584 187.486 288.481 187.563 288.395 187.613L288.258 187.682C288.303 187.7 288.363 187.725 288.436 187.757C288.513 187.789 288.647 187.875 288.839 188.017C289.03 188.158 289.199 188.313 289.345 188.481C289.495 188.646 289.63 188.878 289.748 189.179C289.871 189.475 289.933 189.792 289.933 190.129C289.933 190.949 289.618 191.656 288.989 192.248C288.36 192.84 287.579 193.137 286.645 193.137C285.71 193.137 284.929 192.84 284.3 192.248C283.671 191.656 283.356 190.949 283.356 190.129C283.356 189.792 283.413 189.477 283.527 189.186C283.646 188.889 283.787 188.655 283.951 188.481C284.115 188.304 284.277 188.151 284.437 188.023C284.601 187.896 284.744 187.809 284.867 187.764L285.038 187.682C285.002 187.663 284.954 187.641 284.895 187.613C284.84 187.581 284.74 187.508 284.594 187.395C284.448 187.276 284.318 187.146 284.204 187.005C284.095 186.859 283.994 186.665 283.903 186.424C283.817 186.178 283.773 185.92 283.773 185.651C283.773 184.968 284.054 184.366 284.614 183.847ZM288.224 188.714C287.786 188.304 287.26 188.099 286.645 188.099C286.029 188.099 285.501 188.304 285.059 188.714C284.621 189.124 284.402 189.596 284.402 190.129C284.402 190.68 284.607 191.157 285.018 191.558C285.432 191.959 285.975 192.159 286.645 192.159C287.319 192.159 287.861 191.959 288.271 191.558C288.682 191.157 288.887 190.68 288.887 190.129C288.887 189.596 288.666 189.124 288.224 188.714ZM291.73 192.945C291.607 192.813 291.546 192.645 291.546 192.439C291.546 192.234 291.607 192.068 291.73 191.94C291.858 191.808 292.029 191.742 292.243 191.742C292.457 191.742 292.626 191.808 292.749 191.94C292.877 192.068 292.94 192.234 292.94 192.439C292.94 192.645 292.877 192.813 292.749 192.945C292.626 193.073 292.457 193.137 292.243 193.137C292.029 193.137 291.858 193.073 291.73 192.945ZM296.447 185.118C295.882 185.838 295.6 186.834 295.6 188.105C295.6 189.372 295.882 190.366 296.447 191.086C297.012 191.801 297.691 192.159 298.484 192.159C299.268 192.159 299.94 191.799 300.501 191.079C301.062 190.354 301.342 189.361 301.342 188.099C301.342 186.827 301.059 185.834 300.494 185.118C299.929 184.398 299.255 184.038 298.471 184.038C297.687 184.038 297.012 184.398 296.447 185.118ZM301.232 184.448C302.007 185.369 302.395 186.586 302.395 188.099C302.395 189.612 302.009 190.831 301.239 191.756C300.469 192.676 299.551 193.137 298.484 193.137C297.409 193.137 296.484 192.676 295.709 191.756C294.939 190.831 294.554 189.612 294.554 188.099C294.554 186.586 294.941 185.369 295.716 184.448C296.491 183.523 297.409 183.061 298.471 183.061C299.537 183.061 300.458 183.523 301.232 184.448ZM303.085 183.197H309.251V184.182L304.91 193H303.857L308.198 184.182H303.085V183.197ZM309.436 192.945C309.312 192.813 309.251 192.645 309.251 192.439C309.251 192.234 309.312 192.068 309.436 191.94C309.563 191.808 309.734 191.742 309.948 191.742C310.162 191.742 310.331 191.808 310.454 191.94C310.582 192.068 310.646 192.234 310.646 192.439C310.646 192.645 310.582 192.813 310.454 192.945C310.331 193.073 310.162 193.137 309.948 193.137C309.734 193.137 309.563 193.073 309.436 192.945ZM318.281 193H311.979C311.979 192.357 312.108 191.77 312.368 191.236C312.632 190.703 312.958 190.275 313.346 189.951C313.733 189.623 314.152 189.295 314.604 188.967C315.055 188.639 315.474 188.347 315.861 188.092C316.249 187.837 316.572 187.52 316.832 187.142C317.096 186.763 317.229 186.36 317.229 185.932C317.229 185.362 317.042 184.904 316.668 184.558C316.294 184.211 315.782 184.038 315.13 184.038C314.802 184.038 314.503 184.097 314.234 184.216C313.97 184.33 313.765 184.469 313.619 184.633C313.478 184.797 313.359 184.961 313.264 185.125C313.173 185.289 313.109 185.43 313.072 185.549L313.031 185.72L312.115 185.303C312.124 185.239 312.145 185.157 312.177 185.057C312.213 184.956 312.304 184.779 312.45 184.523C312.601 184.268 312.776 184.043 312.977 183.847C313.177 183.651 313.469 183.471 313.852 183.307C314.234 183.143 314.66 183.061 315.13 183.061C316.064 183.061 316.823 183.334 317.406 183.881C317.99 184.428 318.281 185.111 318.281 185.932C318.281 186.406 318.172 186.845 317.953 187.251C317.739 187.657 317.468 187.998 317.14 188.276C316.816 188.55 316.449 188.837 316.039 189.138C315.629 189.434 315.239 189.71 314.87 189.965C314.501 190.215 314.157 190.521 313.838 190.881C313.523 191.241 313.3 191.621 313.168 192.022H318.281V193ZM321.85 185.118C321.285 185.838 321.002 186.834 321.002 188.105C321.002 189.372 321.285 190.366 321.85 191.086C322.415 191.801 323.094 192.159 323.887 192.159C324.671 192.159 325.343 191.799 325.903 191.079C326.464 190.354 326.744 189.361 326.744 188.099C326.744 186.827 326.462 185.834 325.896 185.118C325.331 184.398 324.657 184.038 323.873 184.038C323.089 184.038 322.415 184.398 321.85 185.118ZM326.635 184.448C327.41 185.369 327.797 186.586 327.797 188.099C327.797 189.612 327.412 190.831 326.642 191.756C325.871 192.676 324.953 193.137 323.887 193.137C322.811 193.137 321.886 192.676 321.111 191.756C320.341 190.831 319.956 189.612 319.956 188.099C319.956 186.586 320.343 185.369 321.118 184.448C321.893 183.523 322.811 183.061 323.873 183.061C324.939 183.061 325.86 183.523 326.635 184.448ZM335.494 193H329.191C329.191 192.357 329.321 191.77 329.581 191.236C329.845 190.703 330.171 190.275 330.559 189.951C330.946 189.623 331.365 189.295 331.816 188.967C332.268 188.639 332.687 188.347 333.074 188.092C333.462 187.837 333.785 187.52 334.045 187.142C334.309 186.763 334.441 186.36 334.441 185.932C334.441 185.362 334.255 184.904 333.881 184.558C333.507 184.211 332.994 184.038 332.343 184.038C332.015 184.038 331.716 184.097 331.447 184.216C331.183 184.33 330.978 184.469 330.832 184.633C330.691 184.797 330.572 184.961 330.477 185.125C330.385 185.289 330.322 185.43 330.285 185.549L330.244 185.72L329.328 185.303C329.337 185.239 329.358 185.157 329.39 185.057C329.426 184.956 329.517 184.779 329.663 184.523C329.813 184.268 329.989 184.043 330.189 183.847C330.39 183.651 330.682 183.471 331.064 183.307C331.447 183.143 331.873 183.061 332.343 183.061C333.277 183.061 334.036 183.334 334.619 183.881C335.202 184.428 335.494 185.111 335.494 185.932C335.494 186.406 335.385 186.845 335.166 187.251C334.952 187.657 334.681 187.998 334.353 188.276C334.029 188.55 333.662 188.837 333.252 189.138C332.842 189.434 332.452 189.71 332.083 189.965C331.714 190.215 331.37 190.521 331.051 190.881C330.736 191.241 330.513 191.621 330.381 192.022H335.494V193ZM339.062 185.118C338.497 185.838 338.215 186.834 338.215 188.105C338.215 189.372 338.497 190.366 339.062 191.086C339.628 191.801 340.307 192.159 341.1 192.159C341.883 192.159 342.556 191.799 343.116 191.079C343.677 190.354 343.957 189.361 343.957 188.099C343.957 186.827 343.674 185.834 343.109 185.118C342.544 184.398 341.87 184.038 341.086 184.038C340.302 184.038 339.628 184.398 339.062 185.118ZM343.848 184.448C344.622 185.369 345.01 186.586 345.01 188.099C345.01 189.612 344.625 190.831 343.854 191.756C343.084 192.676 342.166 193.137 341.1 193.137C340.024 193.137 339.099 192.676 338.324 191.756C337.554 190.831 337.169 189.612 337.169 188.099C337.169 186.586 337.556 185.369 338.331 184.448C339.106 183.523 340.024 183.061 341.086 183.061C342.152 183.061 343.073 183.523 343.848 184.448Z" fill="#7D7D7D"/>
<path d="M155.582 162.647C157.215 162.647 158.663 163.291 159.924 164.577C161.185 165.855 161.815 167.336 161.815 169.021C161.815 170.806 161.164 172.317 159.86 173.553C158.565 174.78 156.919 175.394 154.922 175.394C152.933 175.394 151.287 174.78 149.983 173.553C148.688 172.317 148.041 170.806 148.041 169.021C148.041 168.293 148.168 167.561 148.422 166.824C148.684 166.088 148.947 165.538 149.209 165.174L149.603 164.603L154.668 156.795H158.705L154.795 162.774C155.023 162.69 155.286 162.647 155.582 162.647ZM157.156 171.153C157.749 170.578 158.045 169.867 158.045 169.021C158.045 168.174 157.749 167.463 157.156 166.888C156.572 166.312 155.827 166.024 154.922 166.024C154.025 166.024 153.28 166.312 152.688 166.888C152.104 167.463 151.812 168.174 151.812 169.021C151.812 169.867 152.104 170.578 152.688 171.153C153.28 171.72 154.025 172.004 154.922 172.004C155.827 172.004 156.572 171.72 157.156 171.153ZM176.25 168.373H178.332V171.75H176.25V175H172.353V171.75H163.771V167.853L171.705 156.795H176.25V168.373ZM172.353 168.373V161.353L167.414 168.373H172.353ZM182.763 159.397C182.416 159.744 182.242 160.18 182.242 160.705C182.242 161.221 182.416 161.653 182.763 162C183.11 162.347 183.541 162.521 184.058 162.521C184.582 162.521 185.018 162.347 185.365 162C185.712 161.653 185.886 161.221 185.886 160.705C185.886 160.18 185.712 159.744 185.365 159.397C185.018 159.05 184.582 158.877 184.058 158.877C183.541 158.877 183.11 159.05 182.763 159.397ZM182.115 175L193.554 156.795H196.804L185.365 175H182.115ZM187.181 157.709C188.052 158.572 188.488 159.571 188.488 160.705C188.488 161.831 188.052 162.829 187.181 163.701C186.317 164.564 185.276 164.996 184.058 164.996C182.847 164.996 181.806 164.564 180.935 163.701C180.071 162.829 179.64 161.831 179.64 160.705C179.64 159.571 180.071 158.572 180.935 157.709C181.806 156.846 182.847 156.414 184.058 156.414C185.276 156.414 186.317 156.846 187.181 157.709ZM196.156 172.397C196.503 172.05 196.677 171.619 196.677 171.103C196.677 170.578 196.503 170.142 196.156 169.795C195.809 169.448 195.373 169.274 194.849 169.274C194.332 169.274 193.901 169.448 193.554 169.795C193.207 170.142 193.033 170.578 193.033 171.103C193.033 171.619 193.207 172.05 193.554 172.397C193.901 172.744 194.332 172.918 194.849 172.918C195.373 172.918 195.809 172.744 196.156 172.397ZM191.726 174.099C190.862 173.227 190.431 172.228 190.431 171.103C190.431 169.977 190.862 168.982 191.726 168.119C192.597 167.247 193.638 166.812 194.849 166.812C196.067 166.812 197.108 167.247 197.972 168.119C198.843 168.982 199.279 169.977 199.279 171.103C199.279 172.228 198.843 173.227 197.972 174.099C197.108 174.962 196.067 175.394 194.849 175.394C193.638 175.394 192.597 174.962 191.726 174.099Z" fill="black"/>
<path d="M95.5625 171.496C95.2396 171.908 95.0781 172.477 95.0781 173.203C95.0781 173.927 95.2396 174.495 95.5625 174.906C95.8854 175.315 96.2734 175.52 96.7266 175.52C97.1745 175.52 97.5586 175.314 97.8789 174.902C98.1992 174.488 98.3594 173.921 98.3594 173.199C98.3594 172.473 98.1979 171.905 97.875 171.496C97.5521 171.085 97.1667 170.879 96.7188 170.879C96.2708 170.879 95.8854 171.085 95.5625 171.496ZM98.2969 171.113C98.7396 171.639 98.9609 172.335 98.9609 173.199C98.9609 174.064 98.7409 174.76 98.3008 175.289C97.8607 175.815 97.3359 176.078 96.7266 176.078C96.112 176.078 95.5833 175.815 95.1406 175.289C94.7005 174.76 94.4805 174.064 94.4805 173.199C94.4805 172.335 94.7018 171.639 95.1445 171.113C95.5872 170.585 96.112 170.32 96.7188 170.32C97.3281 170.32 97.8542 170.585 98.2969 171.113ZM100.438 176L103.957 170.398H104.516L100.996 176H100.438ZM101.871 170.684C102.116 170.926 102.238 171.217 102.238 171.559C102.238 171.9 102.116 172.193 101.871 172.438C101.629 172.68 101.337 172.801 100.996 172.801C100.655 172.801 100.363 172.68 100.121 172.438C99.8789 172.193 99.7578 171.9 99.7578 171.559C99.7578 171.217 99.8789 170.926 100.121 170.684C100.363 170.441 100.655 170.32 100.996 170.32C101.337 170.32 101.629 170.441 101.871 170.684ZM101.508 172.105C101.648 171.96 101.719 171.777 101.719 171.559C101.719 171.34 101.648 171.159 101.508 171.016C101.37 170.872 101.199 170.801 100.996 170.801C100.796 170.801 100.625 170.872 100.484 171.016C100.346 171.159 100.277 171.34 100.277 171.559C100.277 171.777 100.346 171.96 100.484 172.105C100.625 172.249 100.796 172.32 100.996 172.32C101.199 172.32 101.37 172.249 101.508 172.105ZM103.082 175.715C102.84 175.473 102.719 175.181 102.719 174.84C102.719 174.499 102.84 174.207 103.082 173.965C103.324 173.723 103.616 173.602 103.957 173.602C104.298 173.602 104.59 173.723 104.832 173.965C105.077 174.207 105.199 174.499 105.199 174.84C105.199 175.181 105.077 175.473 104.832 175.715C104.59 175.957 104.298 176.078 103.957 176.078C103.616 176.078 103.324 175.957 103.082 175.715ZM103.445 174.297C103.307 174.44 103.238 174.621 103.238 174.84C103.238 175.059 103.307 175.241 103.445 175.387C103.583 175.53 103.754 175.602 103.957 175.602C104.16 175.602 104.331 175.53 104.469 175.387C104.607 175.241 104.676 175.059 104.676 174.84C104.676 174.621 104.607 174.44 104.469 174.297C104.331 174.151 104.16 174.078 103.957 174.078C103.754 174.078 103.583 174.151 103.445 174.297Z" fill="black"/>
<path d="M167.48 98.3984C168.02 98.3984 168.467 98.5755 168.824 98.9297C169.181 99.2812 169.359 99.7174 169.359 100.238C169.359 100.783 169.184 101.225 168.832 101.566C168.48 101.908 168.017 102.078 167.441 102.078C167.212 102.078 166.991 102.049 166.777 101.992C166.564 101.932 166.388 101.863 166.25 101.785C166.115 101.704 165.995 101.622 165.891 101.539C165.786 101.456 165.714 101.385 165.672 101.328L165.602 101.238L166 100.84C166.01 100.855 166.029 100.88 166.055 100.914C166.083 100.945 166.142 101 166.23 101.078C166.322 101.154 166.418 101.223 166.52 101.285C166.621 101.345 166.754 101.4 166.918 101.449C167.085 101.496 167.259 101.52 167.441 101.52C167.842 101.52 168.163 101.402 168.402 101.168C168.642 100.934 168.762 100.624 168.762 100.238C168.762 99.8607 168.642 99.5534 168.402 99.3164C168.165 99.0794 167.858 98.9609 167.48 98.9609C167.23 98.9609 167.001 99.0117 166.793 99.1133C166.585 99.2148 166.44 99.3125 166.359 99.4062L166.238 99.5586H165.801L166 96.3984H169V96.9609H166.52L166.398 98.7188C166.43 98.6979 166.474 98.6693 166.531 98.6328C166.589 98.5938 166.71 98.5456 166.895 98.4883C167.082 98.4284 167.277 98.3984 167.48 98.3984ZM171.445 97.4961C171.122 97.9076 170.961 98.4766 170.961 99.2031C170.961 99.9271 171.122 100.495 171.445 100.906C171.768 101.315 172.156 101.52 172.609 101.52C173.057 101.52 173.441 101.314 173.762 100.902C174.082 100.488 174.242 99.9206 174.242 99.1992C174.242 98.4727 174.081 97.9049 173.758 97.4961C173.435 97.0846 173.049 96.8789 172.602 96.8789C172.154 96.8789 171.768 97.0846 171.445 97.4961ZM174.18 97.1133C174.622 97.6393 174.844 98.3346 174.844 99.1992C174.844 100.064 174.624 100.76 174.184 101.289C173.743 101.815 173.219 102.078 172.609 102.078C171.995 102.078 171.466 101.815 171.023 101.289C170.583 100.76 170.363 100.064 170.363 99.1992C170.363 98.3346 170.585 97.6393 171.027 97.1133C171.47 96.5846 171.995 96.3203 172.602 96.3203C173.211 96.3203 173.737 96.5846 174.18 97.1133ZM176.32 102L179.84 96.3984H180.398L176.879 102H176.32ZM177.754 96.6836C177.999 96.9258 178.121 97.2174 178.121 97.5586C178.121 97.8997 177.999 98.1927 177.754 98.4375C177.512 98.6797 177.22 98.8008 176.879 98.8008C176.538 98.8008 176.246 98.6797 176.004 98.4375C175.762 98.1927 175.641 97.8997 175.641 97.5586C175.641 97.2174 175.762 96.9258 176.004 96.6836C176.246 96.4414 176.538 96.3203 176.879 96.3203C177.22 96.3203 177.512 96.4414 177.754 96.6836ZM177.391 98.1055C177.531 97.9596 177.602 97.7773 177.602 97.5586C177.602 97.3398 177.531 97.1589 177.391 97.0156C177.253 96.8724 177.082 96.8008 176.879 96.8008C176.678 96.8008 176.508 96.8724 176.367 97.0156C176.229 97.1589 176.16 97.3398 176.16 97.5586C176.16 97.7773 176.229 97.9596 176.367 98.1055C176.508 98.2487 176.678 98.3203 176.879 98.3203C177.082 98.3203 177.253 98.2487 177.391 98.1055ZM178.965 101.715C178.723 101.473 178.602 101.181 178.602 100.84C178.602 100.499 178.723 100.207 178.965 99.9648C179.207 99.7227 179.499 99.6016 179.84 99.6016C180.181 99.6016 180.473 99.7227 180.715 99.9648C180.96 100.207 181.082 100.499 181.082 100.84C181.082 101.181 180.96 101.473 180.715 101.715C180.473 101.957 180.181 102.078 179.84 102.078C179.499 102.078 179.207 101.957 178.965 101.715ZM179.328 100.297C179.19 100.44 179.121 100.621 179.121 100.84C179.121 101.059 179.19 101.241 179.328 101.387C179.466 101.53 179.637 101.602 179.84 101.602C180.043 101.602 180.214 101.53 180.352 101.387C180.49 101.241 180.559 101.059 180.559 100.84C180.559 100.621 180.49 100.44 180.352 100.297C180.214 100.151 180.043 100.078 179.84 100.078C179.637 100.078 179.466 100.151 179.328 100.297Z" fill="black"/>
<path d="M110.922 130H107.32C107.32 129.633 107.395 129.297 107.543 128.992C107.694 128.688 107.88 128.443 108.102 128.258C108.323 128.07 108.562 127.883 108.82 127.695C109.078 127.508 109.318 127.341 109.539 127.195C109.76 127.049 109.945 126.868 110.094 126.652C110.245 126.436 110.32 126.206 110.32 125.961C110.32 125.635 110.214 125.374 110 125.176C109.786 124.978 109.493 124.879 109.121 124.879C108.934 124.879 108.763 124.913 108.609 124.98C108.458 125.046 108.341 125.125 108.258 125.219C108.177 125.312 108.109 125.406 108.055 125.5C108.003 125.594 107.966 125.674 107.945 125.742L107.922 125.84L107.398 125.602C107.404 125.565 107.415 125.518 107.434 125.461C107.454 125.404 107.507 125.302 107.59 125.156C107.676 125.01 107.776 124.882 107.891 124.77C108.005 124.658 108.172 124.555 108.391 124.461C108.609 124.367 108.853 124.32 109.121 124.32C109.655 124.32 110.089 124.477 110.422 124.789C110.755 125.102 110.922 125.492 110.922 125.961C110.922 126.232 110.859 126.483 110.734 126.715C110.612 126.947 110.457 127.142 110.27 127.301C110.085 127.457 109.875 127.621 109.641 127.793C109.406 127.962 109.184 128.12 108.973 128.266C108.762 128.409 108.565 128.583 108.383 128.789C108.203 128.995 108.076 129.212 108 129.441H110.922V130ZM113.879 126.398C114.418 126.398 114.866 126.576 115.223 126.93C115.579 127.281 115.758 127.717 115.758 128.238C115.758 128.783 115.582 129.225 115.23 129.566C114.879 129.908 114.415 130.078 113.84 130.078C113.611 130.078 113.389 130.049 113.176 129.992C112.962 129.932 112.786 129.863 112.648 129.785C112.513 129.704 112.393 129.622 112.289 129.539C112.185 129.456 112.112 129.385 112.07 129.328L112 129.238L112.398 128.84C112.409 128.855 112.427 128.88 112.453 128.914C112.482 128.945 112.54 129 112.629 129.078C112.72 129.154 112.816 129.223 112.918 129.285C113.02 129.345 113.152 129.4 113.316 129.449C113.483 129.496 113.658 129.52 113.84 129.52C114.241 129.52 114.561 129.402 114.801 129.168C115.04 128.934 115.16 128.624 115.16 128.238C115.16 127.861 115.04 127.553 114.801 127.316C114.564 127.079 114.257 126.961 113.879 126.961C113.629 126.961 113.4 127.012 113.191 127.113C112.983 127.215 112.839 127.312 112.758 127.406L112.637 127.559H112.199L112.398 124.398H115.398V124.961H112.918L112.797 126.719C112.828 126.698 112.872 126.669 112.93 126.633C112.987 126.594 113.108 126.546 113.293 126.488C113.48 126.428 113.676 126.398 113.879 126.398ZM117.281 130L120.801 124.398H121.359L117.84 130H117.281ZM118.715 124.684C118.96 124.926 119.082 125.217 119.082 125.559C119.082 125.9 118.96 126.193 118.715 126.438C118.473 126.68 118.181 126.801 117.84 126.801C117.499 126.801 117.207 126.68 116.965 126.438C116.723 126.193 116.602 125.9 116.602 125.559C116.602 125.217 116.723 124.926 116.965 124.684C117.207 124.441 117.499 124.32 117.84 124.32C118.181 124.32 118.473 124.441 118.715 124.684ZM118.352 126.105C118.492 125.96 118.562 125.777 118.562 125.559C118.562 125.34 118.492 125.159 118.352 125.016C118.214 124.872 118.043 124.801 117.84 124.801C117.639 124.801 117.469 124.872 117.328 125.016C117.19 125.159 117.121 125.34 117.121 125.559C117.121 125.777 117.19 125.96 117.328 126.105C117.469 126.249 117.639 126.32 117.84 126.32C118.043 126.32 118.214 126.249 118.352 126.105ZM119.926 129.715C119.684 129.473 119.562 129.181 119.562 128.84C119.562 128.499 119.684 128.207 119.926 127.965C120.168 127.723 120.46 127.602 120.801 127.602C121.142 127.602 121.434 127.723 121.676 127.965C121.921 128.207 122.043 128.499 122.043 128.84C122.043 129.181 121.921 129.473 121.676 129.715C121.434 129.957 121.142 130.078 120.801 130.078C120.46 130.078 120.168 129.957 119.926 129.715ZM120.289 128.297C120.151 128.44 120.082 128.621 120.082 128.84C120.082 129.059 120.151 129.241 120.289 129.387C120.427 129.53 120.598 129.602 120.801 129.602C121.004 129.602 121.174 129.53 121.312 129.387C121.451 129.241 121.52 129.059 121.52 128.84C121.52 128.621 121.451 128.44 121.312 128.297C121.174 128.151 121.004 128.078 120.801 128.078C120.598 128.078 120.427 128.151 120.289 128.297Z" fill="black"/>
<path d="M224.238 124.398H227.762V124.961L225.281 130H224.68L227.16 124.961H224.238V124.398ZM230.441 126.398C230.98 126.398 231.428 126.576 231.785 126.93C232.142 127.281 232.32 127.717 232.32 128.238C232.32 128.783 232.145 129.225 231.793 129.566C231.441 129.908 230.978 130.078 230.402 130.078C230.173 130.078 229.952 130.049 229.738 129.992C229.525 129.932 229.349 129.863 229.211 129.785C229.076 129.704 228.956 129.622 228.852 129.539C228.747 129.456 228.674 129.385 228.633 129.328L228.562 129.238L228.961 128.84C228.971 128.855 228.99 128.88 229.016 128.914C229.044 128.945 229.103 129 229.191 129.078C229.283 129.154 229.379 129.223 229.48 129.285C229.582 129.345 229.715 129.4 229.879 129.449C230.046 129.496 230.22 129.52 230.402 129.52C230.803 129.52 231.124 129.402 231.363 129.168C231.603 128.934 231.723 128.624 231.723 128.238C231.723 127.861 231.603 127.553 231.363 127.316C231.126 127.079 230.819 126.961 230.441 126.961C230.191 126.961 229.962 127.012 229.754 127.113C229.546 127.215 229.401 127.312 229.32 127.406L229.199 127.559H228.762L228.961 124.398H231.961V124.961H229.48L229.359 126.719C229.391 126.698 229.435 126.669 229.492 126.633C229.549 126.594 229.671 126.546 229.855 126.488C230.043 126.428 230.238 126.398 230.441 126.398ZM233.844 130L237.363 124.398H237.922L234.402 130H233.844ZM235.277 124.684C235.522 124.926 235.645 125.217 235.645 125.559C235.645 125.9 235.522 126.193 235.277 126.438C235.035 126.68 234.743 126.801 234.402 126.801C234.061 126.801 233.77 126.68 233.527 126.438C233.285 126.193 233.164 125.9 233.164 125.559C233.164 125.217 233.285 124.926 233.527 124.684C233.77 124.441 234.061 124.32 234.402 124.32C234.743 124.32 235.035 124.441 235.277 124.684ZM234.914 126.105C235.055 125.96 235.125 125.777 235.125 125.559C235.125 125.34 235.055 125.159 234.914 125.016C234.776 124.872 234.605 124.801 234.402 124.801C234.202 124.801 234.031 124.872 233.891 125.016C233.753 125.159 233.684 125.34 233.684 125.559C233.684 125.777 233.753 125.96 233.891 126.105C234.031 126.249 234.202 126.32 234.402 126.32C234.605 126.32 234.776 126.249 234.914 126.105ZM236.488 129.715C236.246 129.473 236.125 129.181 236.125 128.84C236.125 128.499 236.246 128.207 236.488 127.965C236.73 127.723 237.022 127.602 237.363 127.602C237.704 127.602 237.996 127.723 238.238 127.965C238.483 128.207 238.605 128.499 238.605 128.84C238.605 129.181 238.483 129.473 238.238 129.715C237.996 129.957 237.704 130.078 237.363 130.078C237.022 130.078 236.73 129.957 236.488 129.715ZM236.852 128.297C236.714 128.44 236.645 128.621 236.645 128.84C236.645 129.059 236.714 129.241 236.852 129.387C236.99 129.53 237.16 129.602 237.363 129.602C237.566 129.602 237.737 129.53 237.875 129.387C238.013 129.241 238.082 129.059 238.082 128.84C238.082 128.621 238.013 128.44 237.875 128.297C237.737 128.151 237.566 128.078 237.363 128.078C237.16 128.078 236.99 128.151 236.852 128.297Z" fill="black"/>
<path d="M99.5195 146.398H99.9609V152H99.3594V147.52H98.3203V147.16C98.5026 147.155 98.6667 147.125 98.8125 147.07C98.9583 147.013 99.0742 146.949 99.1602 146.879C99.2461 146.806 99.3164 146.733 99.3711 146.66C99.4284 146.587 99.4674 146.527 99.4883 146.48L99.5195 146.398ZM104.719 152H101.117C101.117 151.633 101.191 151.297 101.34 150.992C101.491 150.688 101.677 150.443 101.898 150.258C102.12 150.07 102.359 149.883 102.617 149.695C102.875 149.508 103.115 149.341 103.336 149.195C103.557 149.049 103.742 148.868 103.891 148.652C104.042 148.436 104.117 148.206 104.117 147.961C104.117 147.635 104.01 147.374 103.797 147.176C103.583 146.978 103.29 146.879 102.918 146.879C102.73 146.879 102.56 146.913 102.406 146.98C102.255 147.046 102.138 147.125 102.055 147.219C101.974 147.312 101.906 147.406 101.852 147.5C101.799 147.594 101.763 147.674 101.742 147.742L101.719 147.84L101.195 147.602C101.201 147.565 101.212 147.518 101.23 147.461C101.251 147.404 101.303 147.302 101.387 147.156C101.473 147.01 101.573 146.882 101.688 146.77C101.802 146.658 101.969 146.555 102.188 146.461C102.406 146.367 102.65 146.32 102.918 146.32C103.452 146.32 103.885 146.477 104.219 146.789C104.552 147.102 104.719 147.492 104.719 147.961C104.719 148.232 104.656 148.483 104.531 148.715C104.409 148.947 104.254 149.142 104.066 149.301C103.882 149.457 103.672 149.621 103.438 149.793C103.203 149.962 102.98 150.12 102.77 150.266C102.559 150.409 102.362 150.583 102.18 150.789C102 150.995 101.872 151.212 101.797 151.441H104.719V152ZM106.195 152L109.715 146.398H110.273L106.754 152H106.195ZM107.629 146.684C107.874 146.926 107.996 147.217 107.996 147.559C107.996 147.9 107.874 148.193 107.629 148.438C107.387 148.68 107.095 148.801 106.754 148.801C106.413 148.801 106.121 148.68 105.879 148.438C105.637 148.193 105.516 147.9 105.516 147.559C105.516 147.217 105.637 146.926 105.879 146.684C106.121 146.441 106.413 146.32 106.754 146.32C107.095 146.32 107.387 146.441 107.629 146.684ZM107.266 148.105C107.406 147.96 107.477 147.777 107.477 147.559C107.477 147.34 107.406 147.159 107.266 147.016C107.128 146.872 106.957 146.801 106.754 146.801C106.553 146.801 106.383 146.872 106.242 147.016C106.104 147.159 106.035 147.34 106.035 147.559C106.035 147.777 106.104 147.96 106.242 148.105C106.383 148.249 106.553 148.32 106.754 148.32C106.957 148.32 107.128 148.249 107.266 148.105ZM108.84 151.715C108.598 151.473 108.477 151.181 108.477 150.84C108.477 150.499 108.598 150.207 108.84 149.965C109.082 149.723 109.374 149.602 109.715 149.602C110.056 149.602 110.348 149.723 110.59 149.965C110.835 150.207 110.957 150.499 110.957 150.84C110.957 151.181 110.835 151.473 110.59 151.715C110.348 151.957 110.056 152.078 109.715 152.078C109.374 152.078 109.082 151.957 108.84 151.715ZM109.203 150.297C109.065 150.44 108.996 150.621 108.996 150.84C108.996 151.059 109.065 151.241 109.203 151.387C109.341 151.53 109.512 151.602 109.715 151.602C109.918 151.602 110.089 151.53 110.227 151.387C110.365 151.241 110.434 151.059 110.434 150.84C110.434 150.621 110.365 150.44 110.227 150.297C110.089 150.151 109.918 150.078 109.715 150.078C109.512 150.078 109.341 150.151 109.203 150.297Z" fill="black"/>
<path d="M134.961 108.039C134.987 108.044 135.023 108.056 135.07 108.074C135.12 108.09 135.204 108.133 135.324 108.203C135.444 108.271 135.549 108.352 135.641 108.445C135.732 108.539 135.814 108.674 135.887 108.852C135.962 109.026 136 109.223 136 109.441C136 109.884 135.827 110.268 135.48 110.594C135.134 110.917 134.681 111.078 134.121 111.078C133.882 111.078 133.654 111.049 133.438 110.992C133.221 110.932 133.043 110.863 132.902 110.785C132.764 110.704 132.642 110.622 132.535 110.539C132.428 110.456 132.352 110.385 132.305 110.328L132.238 110.238L132.641 109.84C132.651 109.855 132.669 109.88 132.695 109.914C132.721 109.945 132.78 110 132.871 110.078C132.962 110.154 133.061 110.223 133.168 110.285C133.275 110.345 133.413 110.4 133.582 110.449C133.754 110.496 133.934 110.52 134.121 110.52C134.527 110.52 134.849 110.417 135.086 110.211C135.323 110.005 135.441 109.749 135.441 109.441C135.441 109.142 135.319 108.887 135.074 108.676C134.832 108.465 134.514 108.359 134.121 108.359H133.559V107.801H134.121C134.457 107.801 134.72 107.711 134.91 107.531C135.103 107.349 135.199 107.105 135.199 106.801C135.199 106.535 135.102 106.315 134.906 106.141C134.714 105.966 134.452 105.879 134.121 105.879C133.967 105.879 133.816 105.901 133.668 105.945C133.522 105.987 133.401 106.04 133.305 106.105C133.208 106.168 133.124 106.232 133.051 106.297C132.98 106.359 132.928 106.413 132.895 106.457L132.84 106.52L132.441 106.078C132.457 106.057 132.479 106.03 132.508 105.996C132.536 105.962 132.603 105.902 132.707 105.816C132.811 105.73 132.923 105.655 133.043 105.59C133.163 105.522 133.32 105.461 133.516 105.406C133.711 105.349 133.913 105.32 134.121 105.32C134.611 105.32 135.013 105.465 135.328 105.754C135.643 106.04 135.801 106.389 135.801 106.801C135.801 106.983 135.771 107.148 135.711 107.297C135.654 107.445 135.583 107.564 135.5 107.652C135.417 107.741 135.335 107.816 135.254 107.879C135.176 107.939 135.107 107.982 135.047 108.008L134.961 108.039ZM136.551 105.398H140.074V105.961L137.594 111H136.992L139.473 105.961H136.551V105.398ZM141.273 111L144.793 105.398H145.352L141.832 111H141.273ZM142.707 105.684C142.952 105.926 143.074 106.217 143.074 106.559C143.074 106.9 142.952 107.193 142.707 107.438C142.465 107.68 142.173 107.801 141.832 107.801C141.491 107.801 141.199 107.68 140.957 107.438C140.715 107.193 140.594 106.9 140.594 106.559C140.594 106.217 140.715 105.926 140.957 105.684C141.199 105.441 141.491 105.32 141.832 105.32C142.173 105.32 142.465 105.441 142.707 105.684ZM142.344 107.105C142.484 106.96 142.555 106.777 142.555 106.559C142.555 106.34 142.484 106.159 142.344 106.016C142.206 105.872 142.035 105.801 141.832 105.801C141.632 105.801 141.461 105.872 141.32 106.016C141.182 106.159 141.113 106.34 141.113 106.559C141.113 106.777 141.182 106.96 141.32 107.105C141.461 107.249 141.632 107.32 141.832 107.32C142.035 107.32 142.206 107.249 142.344 107.105ZM143.918 110.715C143.676 110.473 143.555 110.181 143.555 109.84C143.555 109.499 143.676 109.207 143.918 108.965C144.16 108.723 144.452 108.602 144.793 108.602C145.134 108.602 145.426 108.723 145.668 108.965C145.913 109.207 146.035 109.499 146.035 109.84C146.035 110.181 145.913 110.473 145.668 110.715C145.426 110.957 145.134 111.078 144.793 111.078C144.452 111.078 144.16 110.957 143.918 110.715ZM144.281 109.297C144.143 109.44 144.074 109.621 144.074 109.84C144.074 110.059 144.143 110.241 144.281 110.387C144.419 110.53 144.59 110.602 144.793 110.602C144.996 110.602 145.167 110.53 145.305 110.387C145.443 110.241 145.512 110.059 145.512 109.84C145.512 109.621 145.443 109.44 145.305 109.297C145.167 109.151 144.996 109.078 144.793 109.078C144.59 109.078 144.419 109.151 144.281 109.297Z" fill="black"/>
<path d="M202.398 107.398C202.938 107.398 203.385 107.576 203.742 107.93C204.102 108.281 204.281 108.719 204.281 109.242C204.281 109.763 204.099 110.199 203.734 110.551C203.372 110.902 202.914 111.078 202.359 111.078C201.805 111.078 201.346 110.902 200.984 110.551C200.622 110.199 200.441 109.762 200.441 109.238C200.441 109.035 200.474 108.835 200.539 108.637C200.607 108.436 200.672 108.285 200.734 108.184L200.84 108.039L202.52 105.398H203.121L201.801 107.48C201.954 107.426 202.154 107.398 202.398 107.398ZM203.32 110.168C203.56 109.934 203.68 109.625 203.68 109.242C203.68 108.857 203.56 108.547 203.32 108.312C203.081 108.078 202.76 107.961 202.359 107.961C201.961 107.961 201.641 108.078 201.398 108.312C201.159 108.547 201.039 108.857 201.039 109.242C201.039 109.625 201.159 109.934 201.398 110.168C201.641 110.402 201.961 110.52 202.359 110.52C202.76 110.52 203.081 110.402 203.32 110.168ZM208.641 111H205.039C205.039 110.633 205.113 110.297 205.262 109.992C205.413 109.688 205.599 109.443 205.82 109.258C206.042 109.07 206.281 108.883 206.539 108.695C206.797 108.508 207.036 108.341 207.258 108.195C207.479 108.049 207.664 107.868 207.812 107.652C207.964 107.436 208.039 107.206 208.039 106.961C208.039 106.635 207.932 106.374 207.719 106.176C207.505 105.978 207.212 105.879 206.84 105.879C206.652 105.879 206.482 105.913 206.328 105.98C206.177 106.046 206.06 106.125 205.977 106.219C205.896 106.312 205.828 106.406 205.773 106.5C205.721 106.594 205.685 106.674 205.664 106.742L205.641 106.84L205.117 106.602C205.122 106.565 205.134 106.518 205.152 106.461C205.173 106.404 205.225 106.302 205.309 106.156C205.395 106.01 205.495 105.882 205.609 105.77C205.724 105.658 205.891 105.555 206.109 105.461C206.328 105.367 206.572 105.32 206.84 105.32C207.374 105.32 207.807 105.477 208.141 105.789C208.474 106.102 208.641 106.492 208.641 106.961C208.641 107.232 208.578 107.483 208.453 107.715C208.331 107.947 208.176 108.142 207.988 108.301C207.803 108.457 207.594 108.621 207.359 108.793C207.125 108.962 206.902 109.12 206.691 109.266C206.48 109.409 206.284 109.583 206.102 109.789C205.922 109.995 205.794 110.212 205.719 110.441H208.641V111ZM210.117 111L213.637 105.398H214.195L210.676 111H210.117ZM211.551 105.684C211.796 105.926 211.918 106.217 211.918 106.559C211.918 106.9 211.796 107.193 211.551 107.438C211.309 107.68 211.017 107.801 210.676 107.801C210.335 107.801 210.043 107.68 209.801 107.438C209.559 107.193 209.438 106.9 209.438 106.559C209.438 106.217 209.559 105.926 209.801 105.684C210.043 105.441 210.335 105.32 210.676 105.32C211.017 105.32 211.309 105.441 211.551 105.684ZM211.188 107.105C211.328 106.96 211.398 106.777 211.398 106.559C211.398 106.34 211.328 106.159 211.188 106.016C211.049 105.872 210.879 105.801 210.676 105.801C210.475 105.801 210.305 105.872 210.164 106.016C210.026 106.159 209.957 106.34 209.957 106.559C209.957 106.777 210.026 106.96 210.164 107.105C210.305 107.249 210.475 107.32 210.676 107.32C210.879 107.32 211.049 107.249 211.188 107.105ZM212.762 110.715C212.52 110.473 212.398 110.181 212.398 109.84C212.398 109.499 212.52 109.207 212.762 108.965C213.004 108.723 213.296 108.602 213.637 108.602C213.978 108.602 214.27 108.723 214.512 108.965C214.757 109.207 214.879 109.499 214.879 109.84C214.879 110.181 214.757 110.473 214.512 110.715C214.27 110.957 213.978 111.078 213.637 111.078C213.296 111.078 213.004 110.957 212.762 110.715ZM213.125 109.297C212.987 109.44 212.918 109.621 212.918 109.84C212.918 110.059 212.987 110.241 213.125 110.387C213.263 110.53 213.434 110.602 213.637 110.602C213.84 110.602 214.01 110.53 214.148 110.387C214.286 110.241 214.355 110.059 214.355 109.84C214.355 109.621 214.286 109.44 214.148 109.297C214.01 109.151 213.84 109.078 213.637 109.078C213.434 109.078 213.263 109.151 213.125 109.297Z" fill="black"/>
<path d="M232.602 148.461C232.792 148.633 233.044 148.719 233.359 148.719C233.674 148.719 233.926 148.633 234.113 148.461C234.303 148.286 234.398 148.066 234.398 147.801C234.398 147.533 234.303 147.312 234.113 147.141C233.926 146.966 233.674 146.879 233.359 146.879C233.044 146.879 232.792 146.966 232.602 147.141C232.414 147.312 232.32 147.533 232.32 147.801C232.32 148.066 232.414 148.286 232.602 148.461ZM232.199 146.77C232.52 146.47 232.906 146.32 233.359 146.32C233.812 146.32 234.199 146.47 234.52 146.77C234.84 147.066 235 147.41 235 147.801C235 147.954 234.974 148.102 234.922 148.242C234.872 148.38 234.812 148.491 234.742 148.574C234.674 148.655 234.605 148.727 234.535 148.789C234.467 148.849 234.409 148.893 234.359 148.922L234.281 148.961C234.307 148.971 234.341 148.986 234.383 149.004C234.427 149.022 234.504 149.072 234.613 149.152C234.723 149.233 234.819 149.322 234.902 149.418C234.988 149.512 235.065 149.645 235.133 149.816C235.203 149.986 235.238 150.167 235.238 150.359C235.238 150.828 235.059 151.232 234.699 151.57C234.34 151.909 233.893 152.078 233.359 152.078C232.826 152.078 232.379 151.909 232.02 151.57C231.66 151.232 231.48 150.828 231.48 150.359C231.48 150.167 231.513 149.987 231.578 149.82C231.646 149.651 231.727 149.517 231.82 149.418C231.914 149.316 232.007 149.229 232.098 149.156C232.191 149.083 232.273 149.034 232.344 149.008L232.441 148.961C232.421 148.951 232.393 148.938 232.359 148.922C232.328 148.904 232.271 148.862 232.188 148.797C232.104 148.729 232.03 148.655 231.965 148.574C231.902 148.491 231.845 148.38 231.793 148.242C231.743 148.102 231.719 147.954 231.719 147.801C231.719 147.41 231.879 147.066 232.199 146.77ZM234.262 149.551C234.012 149.316 233.711 149.199 233.359 149.199C233.008 149.199 232.706 149.316 232.453 149.551C232.203 149.785 232.078 150.055 232.078 150.359C232.078 150.674 232.195 150.947 232.43 151.176C232.667 151.405 232.977 151.52 233.359 151.52C233.745 151.52 234.055 151.405 234.289 151.176C234.523 150.947 234.641 150.674 234.641 150.359C234.641 150.055 234.514 149.785 234.262 149.551ZM235.793 146.398H239.316V146.961L236.836 152H236.234L238.715 146.961H235.793V146.398ZM240.516 152L244.035 146.398H244.594L241.074 152H240.516ZM241.949 146.684C242.194 146.926 242.316 147.217 242.316 147.559C242.316 147.9 242.194 148.193 241.949 148.438C241.707 148.68 241.415 148.801 241.074 148.801C240.733 148.801 240.441 148.68 240.199 148.438C239.957 148.193 239.836 147.9 239.836 147.559C239.836 147.217 239.957 146.926 240.199 146.684C240.441 146.441 240.733 146.32 241.074 146.32C241.415 146.32 241.707 146.441 241.949 146.684ZM241.586 148.105C241.727 147.96 241.797 147.777 241.797 147.559C241.797 147.34 241.727 147.159 241.586 147.016C241.448 146.872 241.277 146.801 241.074 146.801C240.874 146.801 240.703 146.872 240.562 147.016C240.424 147.159 240.355 147.34 240.355 147.559C240.355 147.777 240.424 147.96 240.562 148.105C240.703 148.249 240.874 148.32 241.074 148.32C241.277 148.32 241.448 148.249 241.586 148.105ZM243.16 151.715C242.918 151.473 242.797 151.181 242.797 150.84C242.797 150.499 242.918 150.207 243.16 149.965C243.402 149.723 243.694 149.602 244.035 149.602C244.376 149.602 244.668 149.723 244.91 149.965C245.155 150.207 245.277 150.499 245.277 150.84C245.277 151.181 245.155 151.473 244.91 151.715C244.668 151.957 244.376 152.078 244.035 152.078C243.694 152.078 243.402 151.957 243.16 151.715ZM243.523 150.297C243.385 150.44 243.316 150.621 243.316 150.84C243.316 151.059 243.385 151.241 243.523 151.387C243.661 151.53 243.832 151.602 244.035 151.602C244.238 151.602 244.409 151.53 244.547 151.387C244.685 151.241 244.754 151.059 244.754 150.84C244.754 150.621 244.685 150.44 244.547 150.297C244.409 150.151 244.238 150.078 244.035 150.078C243.832 150.078 243.661 150.151 243.523 150.297Z" fill="black"/>
<path d="M231.52 170.398H231.961V176H231.359V171.52H230.32V171.16C230.503 171.155 230.667 171.125 230.812 171.07C230.958 171.013 231.074 170.949 231.16 170.879C231.246 170.806 231.316 170.733 231.371 170.66C231.428 170.587 231.467 170.527 231.488 170.48L231.52 170.398ZM234.359 171.496C234.036 171.908 233.875 172.477 233.875 173.203C233.875 173.927 234.036 174.495 234.359 174.906C234.682 175.315 235.07 175.52 235.523 175.52C235.971 175.52 236.355 175.314 236.676 174.902C236.996 174.488 237.156 173.921 237.156 173.199C237.156 172.473 236.995 171.905 236.672 171.496C236.349 171.085 235.964 170.879 235.516 170.879C235.068 170.879 234.682 171.085 234.359 171.496ZM237.094 171.113C237.536 171.639 237.758 172.335 237.758 173.199C237.758 174.064 237.538 174.76 237.098 175.289C236.658 175.815 236.133 176.078 235.523 176.078C234.909 176.078 234.38 175.815 233.938 175.289C233.497 174.76 233.277 174.064 233.277 173.199C233.277 172.335 233.499 171.639 233.941 171.113C234.384 170.585 234.909 170.32 235.516 170.32C236.125 170.32 236.651 170.585 237.094 171.113ZM239.797 171.496C239.474 171.908 239.312 172.477 239.312 173.203C239.312 173.927 239.474 174.495 239.797 174.906C240.12 175.315 240.508 175.52 240.961 175.52C241.409 175.52 241.793 175.314 242.113 174.902C242.434 174.488 242.594 173.921 242.594 173.199C242.594 172.473 242.432 171.905 242.109 171.496C241.786 171.085 241.401 170.879 240.953 170.879C240.505 170.879 240.12 171.085 239.797 171.496ZM242.531 171.113C242.974 171.639 243.195 172.335 243.195 173.199C243.195 174.064 242.975 174.76 242.535 175.289C242.095 175.815 241.57 176.078 240.961 176.078C240.346 176.078 239.818 175.815 239.375 175.289C238.935 174.76 238.715 174.064 238.715 173.199C238.715 172.335 238.936 171.639 239.379 171.113C239.822 170.585 240.346 170.32 240.953 170.32C241.562 170.32 242.089 170.585 242.531 171.113ZM244.672 176L248.191 170.398H248.75L245.23 176H244.672ZM246.105 170.684C246.35 170.926 246.473 171.217 246.473 171.559C246.473 171.9 246.35 172.193 246.105 172.438C245.863 172.68 245.572 172.801 245.23 172.801C244.889 172.801 244.598 172.68 244.355 172.438C244.113 172.193 243.992 171.9 243.992 171.559C243.992 171.217 244.113 170.926 244.355 170.684C244.598 170.441 244.889 170.32 245.23 170.32C245.572 170.32 245.863 170.441 246.105 170.684ZM245.742 172.105C245.883 171.96 245.953 171.777 245.953 171.559C245.953 171.34 245.883 171.159 245.742 171.016C245.604 170.872 245.434 170.801 245.23 170.801C245.03 170.801 244.859 170.872 244.719 171.016C244.581 171.159 244.512 171.34 244.512 171.559C244.512 171.777 244.581 171.96 244.719 172.105C244.859 172.249 245.03 172.32 245.23 172.32C245.434 172.32 245.604 172.249 245.742 172.105ZM247.316 175.715C247.074 175.473 246.953 175.181 246.953 174.84C246.953 174.499 247.074 174.207 247.316 173.965C247.559 173.723 247.85 173.602 248.191 173.602C248.533 173.602 248.824 173.723 249.066 173.965C249.311 174.207 249.434 174.499 249.434 174.84C249.434 175.181 249.311 175.473 249.066 175.715C248.824 175.957 248.533 176.078 248.191 176.078C247.85 176.078 247.559 175.957 247.316 175.715ZM247.68 174.297C247.542 174.44 247.473 174.621 247.473 174.84C247.473 175.059 247.542 175.241 247.68 175.387C247.818 175.53 247.988 175.602 248.191 175.602C248.395 175.602 248.565 175.53 248.703 175.387C248.841 175.241 248.91 175.059 248.91 174.84C248.91 174.621 248.841 174.44 248.703 174.297C248.565 174.151 248.395 174.078 248.191 174.078C247.988 174.078 247.818 174.151 247.68 174.297Z" fill="black"/>
</svg>
